<svg width="154" height="51" viewBox="0 0 154 51" fill="none" xmlns="http://www.w3.org/2000/svg">
<path d="M141.719 4.36797e-05H12.269C11.7971 4.36797e-05 11.3309 4.36798e-05 10.8603 0.00259368C10.4664 0.00514368 10.0756 0.0125514 9.67784 0.0187862C8.81379 0.028861 7.95177 0.104181 7.09927 0.244091C6.24797 0.387048 5.42334 0.656561 4.65326 1.04352C3.88413 1.43375 3.18135 1.94081 2.57042 2.54631C1.95629 3.15011 1.44436 3.84801 1.05432 4.6132C0.663204 5.37686 0.392004 6.19519 0.250085 7.03993C0.106816 7.8836 0.0297224 8.73701 0.0194946 9.59248C0.00755337 9.9834 0.00629233 10.3756 0 10.7666V40.2373C0.00629233 40.6331 0.00755337 41.0167 0.0194946 41.4127C0.0297256 42.2681 0.10682 43.1215 0.250085 43.9651C0.391612 44.8103 0.662829 45.6291 1.05432 46.3931C1.44418 47.1558 1.95618 47.8509 2.57042 48.4513C3.17904 49.0595 3.88227 49.5669 4.65326 49.9542C5.42333 50.3421 6.24787 50.6133 7.09927 50.7584C7.95191 50.8972 8.81384 50.9726 9.67784 50.9839C10.0756 50.9925 10.4664 50.9975 10.8603 50.9975C11.3309 51 11.7972 51 12.269 51H141.719C142.181 51 142.651 51 143.114 50.9975C143.506 50.9975 143.908 50.9925 144.3 50.9839C145.162 50.9732 146.023 50.8978 146.873 50.7584C147.728 50.6122 148.555 50.3412 149.329 49.9542C150.099 49.5667 150.802 49.0593 151.41 48.4513C152.022 47.8485 152.536 47.1539 152.93 46.3931C153.319 45.6286 153.587 44.8098 153.727 43.9651C153.87 43.1214 153.95 42.2682 153.966 41.4127C153.971 41.0167 153.971 40.6331 153.971 40.2373C153.981 39.774 153.981 39.3134 153.981 38.8427V12.1586C153.981 11.6917 153.981 11.2285 153.971 10.7666C153.971 10.3756 153.971 9.9834 153.966 9.59243C153.95 8.73688 153.87 7.88367 153.727 7.03988C153.587 6.19563 153.318 5.37736 152.93 4.61315C152.136 3.07942 150.876 1.83098 149.329 1.0434C148.555 0.657392 147.727 0.38795 146.873 0.243977C146.023 0.10345 145.162 0.0281036 144.3 0.0186077C143.908 0.0123857 143.506 0.00491418 143.114 0.00242793C142.651 -0.00012207 142.181 -0.00012207 141.719 -0.00012207V4.36797e-05Z" fill="#A6A6A6"/>
<path d="M10.8668 49.8844C10.4747 49.8844 10.0921 49.8794 9.70315 49.8708C8.89735 49.8604 8.09343 49.7909 7.29799 49.6628C6.55628 49.5362 5.83776 49.3008 5.16613 48.9642C4.50067 48.6305 3.89371 48.1928 3.36851 47.6681C2.83571 47.1495 2.39212 46.548 2.05534 45.8875C1.71485 45.2227 1.4792 44.5102 1.35662 43.7746C1.22424 42.9843 1.15262 42.1851 1.14237 41.384C1.13422 41.1151 1.12354 40.2198 1.12354 40.2198V10.7666C1.12354 10.7666 1.13491 9.88502 1.14244 9.62603C1.15225 8.8262 1.22346 8.02827 1.35544 7.23914C1.47825 6.50158 1.71407 5.78694 2.05475 5.11996C2.39029 4.45991 2.83141 3.85801 3.36101 3.33758C3.89 2.8122 4.4989 2.37231 5.1655 2.03393C5.83558 1.69846 6.55274 1.46467 7.29295 1.34041C8.09101 1.21108 8.89772 1.14116 9.70631 1.13123L10.8674 1.11566H143.107L144.282 1.13185C145.084 1.14129 145.883 1.21059 146.674 1.33916C147.421 1.46498 148.146 1.7004 148.824 2.03767C150.159 2.71959 151.246 3.79847 151.931 5.12308C152.267 5.78545 152.499 6.49426 152.62 7.22545C152.754 8.02105 152.828 8.82525 152.844 9.63164C152.847 9.99272 152.847 10.3806 152.847 10.7666C152.858 11.2447 152.858 11.6998 152.858 12.1586V38.8427C152.858 39.3059 152.858 39.7579 152.847 40.2135C152.847 40.6282 152.847 41.008 152.842 41.3989C152.827 42.1909 152.754 42.9808 152.622 43.7621C152.502 44.503 152.268 45.2211 151.928 45.8914C151.588 46.5447 151.147 47.1409 150.621 47.6581C150.095 48.1857 149.487 48.6259 148.82 48.9618C148.144 49.301 147.421 49.5373 146.674 49.6628C145.878 49.7915 145.074 49.8611 144.268 49.8708C143.892 49.8794 143.497 49.8844 143.114 49.8844L141.719 49.887L10.8668 49.8844Z" fill="black"/>
<path d="M31.8719 25.8834C31.8857 24.8192 32.171 23.7757 32.7012 22.8501C33.2314 21.9246 33.9892 21.1469 34.9042 20.5895C34.323 19.7669 33.5561 19.09 32.6646 18.6124C31.7731 18.1349 30.7815 17.8699 29.7685 17.8384C27.6077 17.6137 25.5129 19.1196 24.4118 19.1196C23.2894 19.1196 21.594 17.8608 19.7685 17.898C18.5876 17.9358 17.4368 18.276 16.4281 18.8855C15.4195 19.4951 14.5873 20.3531 14.0128 21.376C11.5242 25.6452 13.3805 31.9196 15.7644 35.3705C16.9571 37.0603 18.351 38.9479 20.175 38.881C21.9598 38.8076 22.6264 37.7533 24.7809 37.7533C26.9153 37.7533 27.5407 38.881 29.4017 38.8384C31.3169 38.8076 32.5235 37.1411 33.6744 35.4353C34.5314 34.2312 35.1908 32.9005 35.6283 31.4923C34.5156 31.026 33.5661 30.2455 32.8981 29.248C32.2301 28.2506 31.8732 27.0804 31.8719 25.8834Z" fill="white"/>
<path d="M28.357 15.5689C29.4013 14.3268 29.9157 12.7302 29.7912 11.1183C28.1958 11.2844 26.7221 12.0399 25.6637 13.2343C25.1463 13.8179 24.7499 14.4967 24.4974 15.2321C24.2449 15.9675 24.1411 16.745 24.192 17.5201C24.99 17.5283 25.7795 17.3569 26.5009 17.0189C27.2224 16.6809 27.857 16.1851 28.357 15.5689Z" fill="white"/>
<path d="M54.4334 34.603H48.3426L46.8799 38.8825H44.3L50.0692 23.0496H52.7495L58.5187 38.8825H55.8948L54.4334 34.603ZM48.9734 32.6283H53.8014L51.4213 25.683H51.3547L48.9734 32.6283Z" fill="white"/>
<path d="M70.978 33.1114C70.978 36.6986 69.0403 39.0033 66.1161 39.0033C65.3754 39.0417 64.6387 38.8726 63.9904 38.5154C63.3422 38.1582 62.8085 37.6274 62.4506 36.9837H62.3952V42.7012H60.0039V27.339H62.3186V29.259H62.3626C62.737 28.6183 63.2797 28.0902 63.9329 27.7309C64.5861 27.3715 65.3254 27.1944 66.0721 27.2182C69.0289 27.2182 70.978 29.5341 70.978 33.1114ZM68.52 33.1114C68.52 30.7743 67.3011 29.2378 65.4413 29.2378C63.6142 29.2378 62.3852 30.8067 62.3852 33.1114C62.3852 35.4373 63.6142 36.9949 65.4413 36.9949C67.3011 36.9949 68.52 35.4696 68.52 33.1114Z" fill="white"/>
<path d="M83.8005 33.1114C83.8005 36.6986 81.8628 39.0033 78.9386 39.0033C78.1979 39.0417 77.4612 38.8726 76.813 38.5155C76.1647 38.1583 75.631 37.6274 75.2731 36.9837H75.2178V42.7013H72.8264V27.3391H75.1411V29.259H75.1851C75.5595 28.6184 76.1021 28.0903 76.7554 27.7309C77.4086 27.3716 78.1479 27.1944 78.8946 27.2183C81.8515 27.2183 83.8005 29.5342 83.8005 33.1114ZM81.3425 33.1114C81.3425 30.7743 80.1236 29.2379 78.2638 29.2379C76.4367 29.2379 75.2077 30.8067 75.2077 33.1114C75.2077 35.4373 76.4367 36.9949 78.2638 36.9949C80.1236 36.9949 81.3426 35.4697 81.3426 33.1114H81.3425Z" fill="white"/>
<path d="M92.2753 34.4711C92.4525 36.0412 93.9919 37.0721 96.0954 37.0721C98.1111 37.0721 99.5612 36.0411 99.5612 34.6254C99.5612 33.3965 98.6866 32.6606 96.6157 32.1563L94.5448 31.662C91.6106 30.9598 90.2484 29.6001 90.2484 27.3938C90.2484 24.662 92.6511 22.7856 96.0628 22.7856C99.4393 22.7856 101.754 24.662 101.832 27.3938H99.4179C99.2734 25.8137 97.9552 24.86 96.0288 24.86C94.1024 24.86 92.7842 25.8249 92.7842 27.2294C92.7842 28.3488 93.6262 29.0074 95.6857 29.5117L97.4463 29.94C100.725 30.7082 102.087 32.0131 102.087 34.329C102.087 37.2912 99.7057 39.1464 95.9182 39.1464C92.3745 39.1464 89.982 37.3347 89.8274 34.471L92.2753 34.4711Z" fill="white"/>
<path d="M107.248 24.6072V27.339H109.463V29.2154H107.248V35.5792C107.248 36.5678 107.692 37.0285 108.665 37.0285C108.928 37.024 109.191 37.0057 109.452 36.9737V38.8389C109.014 38.92 108.569 38.9567 108.124 38.9485C105.765 38.9485 104.845 38.0707 104.845 35.8319V29.2154H103.151V27.339H104.845V24.6072H107.248Z" fill="white"/>
<path d="M110.746 33.1114C110.746 29.4794 112.905 27.1971 116.272 27.1971C119.649 27.1971 121.798 29.4794 121.798 33.1114C121.798 36.7534 119.661 39.0258 116.272 39.0258C112.884 39.0258 110.746 36.7534 110.746 33.1114ZM119.362 33.1114C119.362 30.62 118.209 29.1495 116.272 29.1495C114.334 29.1495 113.183 30.6312 113.183 33.1114C113.183 35.6129 114.334 37.0722 116.272 37.0722C118.209 37.0722 119.362 35.6129 119.362 33.1114H119.362Z" fill="white"/>
<path d="M123.77 27.339H126.051V29.3038H126.106C126.26 28.6902 126.623 28.1479 127.133 27.7681C127.644 27.3882 128.27 27.1941 128.908 27.2182C129.184 27.2173 129.459 27.2469 129.727 27.3066V29.5229C129.38 29.4176 129.017 29.3692 128.653 29.3798C128.306 29.3658 127.959 29.4265 127.638 29.5577C127.316 29.6888 127.027 29.8874 126.79 30.1397C126.554 30.392 126.375 30.6921 126.266 31.0194C126.158 31.3466 126.122 31.6933 126.161 32.0356V38.8825H123.77L123.77 27.339Z" fill="white"/>
<path d="M140.753 35.4921C140.431 37.5876 138.372 39.0257 135.737 39.0257C132.347 39.0257 130.244 36.7758 130.244 33.1662C130.244 29.5454 132.359 27.1971 135.636 27.1971C138.859 27.1971 140.886 29.391 140.886 32.891V33.7028H132.658V33.846C132.62 34.2708 132.674 34.6988 132.815 35.1015C132.957 35.5042 133.184 35.8724 133.48 36.1816C133.777 36.4909 134.136 36.7341 134.535 36.8952C134.933 37.0562 135.362 37.1314 135.792 37.1157C136.357 37.1681 136.924 37.0385 137.409 36.7459C137.894 36.4534 138.27 36.0136 138.482 35.492L140.753 35.4921ZM132.669 32.0468H138.494C138.515 31.6648 138.457 31.2826 138.322 30.924C138.187 30.5655 137.979 30.2384 137.711 29.9633C137.443 29.6882 137.12 29.471 136.763 29.3254C136.406 29.1798 136.022 29.1088 135.636 29.1171C135.247 29.1148 134.861 29.1889 134.5 29.3352C134.14 29.4815 133.812 29.697 133.537 29.9694C133.261 30.2418 133.042 30.5656 132.893 30.9222C132.744 31.2787 132.668 31.661 132.669 32.0468V32.0468Z" fill="white"/>
<path d="M45.9006 18.7397V11.1321H48.9869C50.4295 11.1321 51.2965 11.8593 51.2965 13.0297C51.2969 13.4141 51.1631 13.7869 50.9178 14.0849C50.6725 14.3828 50.3309 14.5876 49.9507 14.6645V14.7542C50.4224 14.7763 50.8669 14.9797 51.1897 15.3212C51.5125 15.6627 51.6884 16.1154 51.6798 16.5832C51.6798 17.9224 50.6959 18.7398 49.056 18.7398L45.9006 18.7397ZM47.0932 14.3532H48.5081C49.5624 14.3532 50.1103 13.9684 50.1103 13.2463C50.1103 12.5446 49.5938 12.1338 48.7104 12.1338H47.0932V14.3532ZM48.8172 17.738C49.8917 17.738 50.4609 17.3053 50.4609 16.4991C50.4609 15.7029 49.8703 15.2864 48.7481 15.2864H47.0932V17.738H48.8172Z" fill="white"/>
<path d="M52.9048 17.1161C52.9048 16.0826 53.6814 15.4868 55.0599 15.4022L56.6294 15.3125V14.817C56.6294 14.2106 56.2248 13.8682 55.4432 13.8682C54.8048 13.8682 54.3625 14.1004 54.2355 14.5063H53.1285C53.2453 13.5202 54.1815 12.8877 55.4959 12.8877C56.9486 12.8877 57.7679 13.6042 57.7679 14.817V18.7397H56.6671V17.9329H56.5766C56.393 18.2223 56.1351 18.4582 55.8293 18.6166C55.5236 18.775 55.1809 18.8501 54.8362 18.8343C54.593 18.8594 54.3471 18.8337 54.1145 18.7588C53.8819 18.684 53.6677 18.5617 53.4858 18.3998C53.3038 18.2379 53.1581 18.04 53.058 17.8189C52.9579 17.5978 52.9057 17.3584 52.9048 17.1161ZM56.6294 16.6255V16.1455L55.2144 16.2352C54.4165 16.2881 54.0546 16.557 54.0546 17.0631C54.0546 17.5799 54.507 17.8806 55.129 17.8806C55.3113 17.8988 55.4954 17.8806 55.6704 17.8269C55.8454 17.7733 56.0078 17.6853 56.1477 17.5682C56.2877 17.4511 56.4025 17.3073 56.4852 17.1453C56.568 16.9834 56.617 16.8066 56.6294 16.6255Z" fill="white"/>
<path d="M59.4093 11.3007C59.4005 11.154 59.4363 11.008 59.5122 10.8817C59.5881 10.7553 59.7005 10.6545 59.8349 10.5922C59.9693 10.5299 60.1195 10.5091 60.266 10.5323C60.4125 10.5556 60.5486 10.6219 60.6566 10.7226C60.7646 10.8234 60.8396 10.954 60.8719 11.0975C60.9041 11.241 60.8922 11.3908 60.8375 11.5275C60.7829 11.6641 60.6881 11.7814 60.5654 11.8641C60.4427 11.9468 60.2978 11.991 60.1494 11.9912C60.0546 11.9959 59.9598 11.9817 59.8706 11.9492C59.7815 11.9168 59.6999 11.8668 59.6308 11.8023C59.5616 11.7378 59.5064 11.6602 59.4683 11.574C59.4302 11.4878 59.4102 11.3948 59.4093 11.3007ZM59.5789 12.9985H60.7187V18.7397H59.5789L59.5789 12.9985Z" fill="white"/>
<path d="M64.6428 16.7045L63.3762 18.7397H62.1208L64.0422 15.8821L62.1045 12.9984H63.4403L64.6856 15.023H64.7761L66.0101 12.9984H67.2818L65.3717 15.8348L67.3032 18.7397H65.9899L64.7283 16.7045H64.6428Z" fill="white"/>
<path d="M68.3125 17.1161C68.3125 16.0826 69.0891 15.4868 70.4676 15.4022L72.0371 15.3125V14.817C72.0371 14.2106 71.6325 13.8682 70.8509 13.8682C70.2125 13.8682 69.7702 14.1004 69.6433 14.5063H68.5362C68.653 13.5202 69.5892 12.8877 70.9036 12.8877C72.3563 12.8877 73.1756 13.6042 73.1756 14.817V18.7397H72.0748V17.9329H71.9843C71.8007 18.2223 71.5428 18.4582 71.2371 18.6166C70.9313 18.775 70.5886 18.8501 70.2439 18.8343C70.0007 18.8594 69.7548 18.8337 69.5222 18.7588C69.2896 18.684 69.0754 18.5617 68.8935 18.3998C68.7115 18.2379 68.5658 18.04 68.4657 17.8189C68.3657 17.5978 68.3135 17.3584 68.3125 17.1161ZM72.0371 16.6255V16.1455L70.6222 16.2352C69.8242 16.2881 69.4623 16.557 69.4623 17.0631C69.4623 17.5799 69.9147 17.8806 70.5368 17.8806C70.719 17.8988 70.9031 17.8806 71.0781 17.8269C71.2532 17.7733 71.4155 17.6853 71.5555 17.5682C71.6954 17.4511 71.8102 17.3073 71.893 17.1453C71.9757 16.9834 72.0247 16.8066 72.0371 16.6255Z" fill="white"/>
<path d="M74.9661 12.9985H76.0669V13.8788H76.1523C76.2756 13.5732 76.4934 13.3141 76.7744 13.1389C77.0555 12.9636 77.3854 12.8811 77.7168 12.9032C77.8881 12.9009 78.0591 12.9168 78.227 12.9505V14.0687C78.0171 14.0243 77.8032 14.0013 77.5886 14.0002C77.4 13.9834 77.21 14.0059 77.0307 14.0663C76.8513 14.1266 76.6868 14.2234 76.5475 14.3505C76.4082 14.4777 76.2973 14.6322 76.2219 14.8043C76.1464 14.9765 76.1082 15.1623 76.1096 15.3499V18.7398H74.9661L74.9661 12.9985Z" fill="white"/>
<path d="M82.6338 12.9984H83.7353V13.9105H83.8207C83.9657 13.5829 84.2102 13.3083 84.5201 13.125C84.8301 12.9416 85.19 12.8586 85.5498 12.8876C85.8318 12.8666 86.1149 12.9087 86.3781 13.0108C86.6414 13.113 86.8781 13.2725 87.0707 13.4776C87.2633 13.6826 87.4069 13.928 87.4908 14.1955C87.5747 14.4631 87.5968 14.7459 87.5554 15.023V18.7396H86.4119V15.3075C86.4119 14.3849 86.0072 13.926 85.1615 13.926C84.9701 13.9172 84.779 13.9495 84.6014 14.0207C84.4237 14.0919 84.2637 14.2003 84.1323 14.3385C84.0009 14.4766 83.9012 14.6414 83.84 14.8213C83.7789 15.0012 83.7577 15.1922 83.778 15.381V18.7397H82.6338L82.6338 12.9984Z" fill="white"/>
<path d="M88.9944 17.1161C88.9944 16.0826 89.771 15.4868 91.1495 15.4022L92.719 15.3125V14.817C92.719 14.2106 92.3144 13.8682 91.5328 13.8682C90.8944 13.8682 90.4521 14.1004 90.3251 14.5063H89.2181C89.3349 13.5202 90.2711 12.8877 91.5855 12.8877C93.0382 12.8877 93.8575 13.6042 93.8575 14.817V18.7397H92.7567V17.9329H92.6662C92.4826 18.2223 92.2247 18.4582 91.9189 18.6166C91.6132 18.775 91.2705 18.8501 90.9258 18.8343C90.6826 18.8594 90.4367 18.8337 90.2041 18.7588C89.9715 18.684 89.7573 18.5617 89.5754 18.3998C89.3934 18.2379 89.2477 18.04 89.1476 17.8189C89.0475 17.5978 88.9953 17.3584 88.9944 17.1161ZM92.719 16.6255V16.1455L91.304 16.2352C90.5061 16.2881 90.1442 16.557 90.1442 17.0631C90.1442 17.5799 90.5966 17.8806 91.2186 17.8806C91.4009 17.8988 91.585 17.8806 91.76 17.827C91.935 17.7733 92.0974 17.6853 92.2373 17.5682C92.3773 17.4511 92.4921 17.3073 92.5749 17.1453C92.6576 16.9834 92.7066 16.8066 92.719 16.6255H92.719Z" fill="white"/>
</svg>
