<svg width="301" height="256" viewBox="0 0 301 256" fill="none" xmlns="http://www.w3.org/2000/svg">
<g clip-path="url(#clip0_788_8101)">
<path d="M189.726 34.8781C186.883 40.7662 181.653 45.1497 176.175 48.7177C170.363 52.4891 164.116 55.5418 157.569 57.8089C156.668 58.1242 155.758 58.4261 154.848 58.7099H115.888C115.636 58.4216 115.392 58.1197 115.158 57.8089C112.712 54.5742 111.401 50.4791 111.892 46.4651C112.536 41.2032 116.532 36.3648 121.718 35.243C126.903 34.1258 132.813 37.2207 134.386 42.2844C135.255 32.522 136.255 22.3496 141.445 14.0332C146.144 6.50526 154.289 1.11721 163.11 0.153132C168.298 -0.387218 173.533 0.571167 178.193 2.91471C178.621 3.13095 179.044 3.3562 179.459 3.59047C182.256 5.17623 184.724 7.28181 186.73 9.79393C192.231 16.7588 193.578 26.8816 189.726 34.8781Z" fill="#F2F2F2"/>
<path d="M179.459 3.59049C179.47 3.70874 179.45 3.82779 179.401 3.93598C179.352 4.04418 179.276 4.13781 179.18 4.20771C161.535 18.5764 147.579 36.9539 138.476 57.8089C138.341 58.1062 138.211 58.4081 138.084 58.7099H136.291C136.417 58.4081 136.544 58.1062 136.674 57.8089C138.382 53.8264 140.269 49.925 142.337 46.1048C146.812 37.8565 152.078 30.0622 158.06 22.8316C164.041 15.5922 170.721 8.9602 178.004 3.03189C178.061 2.98486 178.125 2.94549 178.193 2.91476C178.32 2.86022 178.457 2.83489 178.595 2.84064C178.732 2.8464 178.867 2.8831 178.989 2.94801C179.11 3.01293 179.216 3.10439 179.297 3.21561C179.378 3.32683 179.434 3.45497 179.459 3.59049Z" fill="white"/>
<path d="M180.202 57.8088H8.55961C7.08118 57.8072 5.62783 58.1907 4.34272 58.9216C4.0349 59.0963 3.73851 59.2904 3.45535 59.5027C2.3831 60.2977 1.51204 61.3328 0.911983 62.5251C0.311931 63.7174 -0.000410522 65.0337 4.04946e-07 66.3685V155.569C0.0020176 157.838 0.904479 160.014 2.50928 161.619C4.11408 163.224 6.29008 164.126 8.55961 164.128H180.202C182.472 164.126 184.648 163.224 186.253 161.619C187.857 160.014 188.76 157.838 188.762 155.569V66.3685C188.76 64.0989 187.857 61.923 186.253 60.3182C184.648 58.7134 182.472 57.8109 180.202 57.8088ZM187.861 155.569C187.858 157.599 187.05 159.545 185.615 160.981C184.179 162.416 182.233 163.224 180.202 163.227H8.55961C6.52931 163.224 4.58298 162.417 3.14734 160.981C1.7117 159.545 0.903885 157.599 0.901012 155.569V66.3685C0.907409 64.7499 1.42358 63.1746 2.37622 61.8661C3.32886 60.5576 4.66955 59.5825 6.20787 59.0793C6.27101 59.0613 6.32951 59.0387 6.39265 59.0207C7.09636 58.8138 7.82613 58.7091 8.55961 58.7099H180.202C182.233 58.7128 184.179 59.5206 185.615 60.9562C187.05 62.3918 187.858 64.3382 187.861 66.3685V155.569Z" fill="#3F3D56"/>
<path d="M242.02 174.162C242.613 173.776 243.114 173.264 243.487 172.663C243.861 172.062 244.098 171.387 244.183 170.685C244.267 169.982 244.196 169.27 243.976 168.597C243.755 167.925 243.389 167.31 242.905 166.794L245.595 134.713L237.889 135.561L235.778 166.784C234.966 167.656 234.501 168.795 234.472 169.985C234.444 171.176 234.853 172.336 235.622 173.246C236.392 174.155 237.468 174.751 238.647 174.92C239.826 175.088 241.026 174.819 242.02 174.162Z" fill="#FFB8B8"/>
<path d="M214.593 250.681L209.069 250.68L206.442 229.377L214.593 229.377L214.593 250.681Z" fill="#FFB8B8"/>
<path d="M205.124 249.102H215.776V255.809H198.418C198.418 254.928 198.591 254.056 198.928 253.242C199.265 252.429 199.759 251.689 200.382 251.067C201.005 250.444 201.744 249.95 202.558 249.613C203.372 249.276 204.244 249.102 205.124 249.102Z" fill="#2F2E41"/>
<path d="M253.787 250.681L248.263 250.68L245.636 229.377L253.787 229.377L253.787 250.681Z" fill="#FFB8B8"/>
<path d="M244.318 249.102H254.97V255.809H237.612C237.612 254.03 238.318 252.324 239.576 251.067C240.834 249.809 242.54 249.102 244.318 249.102Z" fill="#2F2E41"/>
<path d="M214.686 237.486C214.626 237.486 214.566 237.484 214.505 237.479L206.688 236.853C206.378 236.828 206.077 236.74 205.802 236.593C205.528 236.446 205.288 236.243 205.096 235.999C204.904 235.754 204.764 235.472 204.687 235.171C204.609 234.869 204.594 234.555 204.644 234.248L216.496 160.942L217.29 150.603C217.325 150.119 217.516 149.66 217.834 149.295C218.152 148.929 218.58 148.676 219.054 148.575L230.975 145.967C231.413 145.869 231.871 145.905 232.288 146.071C232.706 146.237 233.064 146.524 233.316 146.896L236.222 151.144C237.364 152.796 238.604 154.377 239.937 155.878C241.999 158.227 245.506 163.442 245.82 171.977C245.905 174.781 246.196 177.575 246.691 180.336L256.289 232.036C256.337 232.339 256.324 232.649 256.248 232.947C256.172 233.244 256.037 233.523 255.85 233.766C255.662 234.01 255.427 234.212 255.159 234.361C254.89 234.51 254.594 234.603 254.289 234.633L246.879 235.195C246.349 235.247 245.817 235.109 245.38 234.805C244.942 234.501 244.627 234.052 244.49 233.537L231.346 184.657C231.32 184.561 231.264 184.476 231.185 184.416C231.106 184.356 231.009 184.323 230.91 184.323C230.811 184.323 230.715 184.356 230.636 184.417C230.557 184.477 230.501 184.562 230.476 184.658L216.862 235.813C216.734 236.293 216.451 236.716 216.058 237.019C215.664 237.321 215.182 237.486 214.686 237.486Z" fill="#2F2E41"/>
<path d="M235.474 112.745C241.585 112.745 246.538 107.792 246.538 101.681C246.538 95.5696 241.585 90.6157 235.474 90.6157C229.363 90.6157 224.409 95.5696 224.409 101.681C224.409 107.792 229.363 112.745 235.474 112.745Z" fill="#FFB8B8"/>
<path d="M216.719 152.266L216.49 136.465C215.647 126.359 220.123 121.053 224.026 118.383C225.033 117.704 226.167 117.236 227.36 117.008C228.552 116.779 229.779 116.796 230.965 117.055L239.673 118.938C240.886 119.202 242.032 119.709 243.043 120.429C244.054 121.149 244.909 122.067 245.555 123.126C246.173 124.126 246.579 125.242 246.747 126.405C246.915 127.568 246.843 128.753 246.533 129.887C245.928 132.009 244.587 133.847 242.749 135.069C235.267 140.351 234.74 149.223 234.735 149.313L234.726 149.496L216.719 152.266Z" fill="#3CFCA0"/>
<path d="M243.971 140.516H236.312C235.775 140.516 235.26 140.302 234.88 139.922C234.5 139.542 234.286 139.027 234.285 138.489V125.199C234.285 123.646 234.902 122.156 236 121.058C237.099 119.96 238.588 119.343 240.142 119.343C241.695 119.343 243.185 119.96 244.283 121.058C245.381 122.156 245.998 123.646 245.998 125.199V138.489C245.998 139.027 245.784 139.542 245.404 139.922C245.024 140.302 244.509 140.516 243.971 140.516Z" fill="#3CFCA0"/>
<path d="M192.551 143.027C192.1 143.566 191.54 144.002 190.908 144.309C190.276 144.615 189.586 144.784 188.883 144.804C188.181 144.825 187.483 144.696 186.834 144.427C186.185 144.157 185.601 143.754 185.119 143.242C180.756 138.665 187.889 131.793 192.269 136.38C192.424 136.538 192.567 136.707 192.698 136.885L214.786 136.335L217.422 131.514L225.524 134.66C223.969 137.072 222.183 146.539 218.115 146.079C217.581 146.093 193.097 143.066 192.551 143.027Z" fill="#FFB8B8"/>
<path d="M222.099 139.379L215.924 134.847C215.491 134.529 215.202 134.052 215.121 133.52C215.039 132.989 215.172 132.447 215.489 132.014L223.352 121.299C223.807 120.679 224.38 120.155 225.038 119.756C225.695 119.357 226.425 119.092 227.185 118.975C227.946 118.859 228.721 118.893 229.468 119.076C230.215 119.259 230.919 119.588 231.539 120.043C232.159 120.498 232.683 121.07 233.082 121.728C233.481 122.386 233.746 123.116 233.863 123.876C233.979 124.636 233.945 125.412 233.762 126.159C233.579 126.906 233.25 127.609 232.795 128.229L224.932 138.944C224.614 139.377 224.137 139.665 223.605 139.747C223.074 139.829 222.532 139.696 222.099 139.379Z" fill="#3CFCA0"/>
<path d="M237.69 107.432C238.047 106.687 238.171 105.852 238.045 105.035C237.92 104.219 237.551 103.459 236.987 102.855C234.905 100.756 231.653 102.156 228.84 101.951C224.154 101.609 220.963 96.0208 222.361 91.5354C223.76 87.0501 228.733 84.2668 233.422 84.5619C238.111 84.857 242.356 87.7577 245.182 91.511C247.117 88.3976 251.869 88.0345 254.936 90.0415C258.004 92.0484 259.59 95.7161 260.246 99.3223C260.902 102.929 260.795 106.635 261.347 110.258C262.686 119.042 268.355 127.313 276.558 130.727C284.761 134.142 295.257 131.947 300.624 124.866C301.667 133.447 299.837 142.133 295.419 149.563C291 156.993 284.244 162.75 276.206 165.931C271.761 167.691 266.852 168.625 262.172 167.647C254.618 166.068 248.741 159.607 246.18 152.326C243.619 145.045 243.926 137.056 245.17 129.439C245.936 124.748 246.784 119.191 243.362 115.891C242.402 115.092 241.272 114.522 240.058 114.225C239.414 114.032 238.823 113.694 238.33 113.238C237.836 112.781 237.454 112.218 237.211 111.592C236.968 110.965 236.871 110.291 236.928 109.621C236.986 108.952 237.195 108.304 237.54 107.727C237.596 107.629 237.645 107.531 237.69 107.432Z" fill="#2F2E41"/>
<path d="M277.412 256H174.697C174.577 256 174.463 255.952 174.378 255.868C174.294 255.783 174.246 255.669 174.246 255.549C174.246 255.43 174.294 255.315 174.378 255.231C174.463 255.146 174.577 255.099 174.697 255.099H277.412C277.532 255.099 277.646 255.146 277.731 255.231C277.815 255.315 277.863 255.43 277.863 255.549C277.863 255.669 277.815 255.783 277.731 255.868C277.646 255.952 277.532 256 277.412 256Z" fill="#3F3D56"/>
<path d="M94.1934 110.931C93.5097 110.93 92.8373 110.757 92.2387 110.427L2.56857 61.0726C2.46391 61.015 2.38642 60.9182 2.35315 60.8034C2.31988 60.6887 2.33355 60.5654 2.39116 60.4608C2.44877 60.3561 2.54561 60.2786 2.66035 60.2454C2.7751 60.2121 2.89836 60.2258 3.00302 60.2834L92.6732 109.638C93.1305 109.89 93.6434 110.025 94.1658 110.029C94.6882 110.034 95.2035 109.908 95.6651 109.664L186.811 61.5817C186.864 61.5539 186.921 61.5368 186.98 61.5312C187.039 61.5256 187.098 61.5317 187.155 61.5491C187.212 61.5666 187.264 61.595 187.31 61.6328C187.355 61.6706 187.393 61.717 187.421 61.7694C187.448 61.8218 187.465 61.8791 187.471 61.9381C187.476 61.9971 187.47 62.0565 187.452 62.1131C187.435 62.1697 187.406 62.2222 187.368 62.2677C187.331 62.3133 187.284 62.3509 187.232 62.3784L96.0855 110.461C95.5025 110.769 94.853 110.93 94.1934 110.931Z" fill="#3F3D56"/>
<path d="M28.6372 141.603H16.023C15.0671 141.603 14.1504 141.223 13.4746 140.547C12.7987 139.871 12.4189 138.955 12.4189 137.999C12.4189 137.043 12.7987 136.126 13.4746 135.45C14.1504 134.774 15.0671 134.395 16.023 134.395H28.6372C29.593 134.395 30.5097 134.774 31.1856 135.45C31.8615 136.126 32.2412 137.043 32.2412 137.999C32.2412 138.955 31.8615 139.871 31.1856 140.547C30.5097 141.223 29.593 141.603 28.6372 141.603Z" fill="#3F3D56"/>
<path d="M43.5038 153.767H16.023C15.0671 153.767 14.1504 153.387 13.4746 152.711C12.7987 152.035 12.4189 151.118 12.4189 150.163C12.4189 149.207 12.7987 148.29 13.4746 147.614C14.1504 146.938 15.0671 146.559 16.023 146.559H43.5038C44.4597 146.559 45.3764 146.938 46.0523 147.614C46.7282 148.29 47.1079 149.207 47.1079 150.163C47.1079 151.118 46.7282 152.035 46.0523 152.711C45.3764 153.387 44.4597 153.767 43.5038 153.767Z" fill="#3F3D56"/>
<path d="M94.1573 125.385C102.119 125.385 108.573 118.93 108.573 110.968C108.573 103.007 102.119 96.5522 94.1573 96.5522C86.1954 96.5522 79.7411 103.007 79.7411 110.968C79.7411 118.93 86.1954 125.385 94.1573 125.385Z" fill="#3CFCA0"/>
</g>
<defs>
<clipPath id="clip0_788_8101">
<rect width="300.903" height="256" fill="white"/>
</clipPath>
</defs>
</svg>
