<svg width="40" height="40" viewBox="0 0 40 40" fill="none" xmlns="http://www.w3.org/2000/svg">
<path d="M20 35.8437C28.75 35.8437 35.8438 28.75 35.8438 20C35.8438 11.25 28.75 4.15625 20 4.15625C11.25 4.15625 4.15625 11.25 4.15625 20C4.15625 28.75 11.25 35.8437 20 35.8437ZM20 5.65625C27.9063 5.65625 34.3438 12.0937 34.3438 20C34.3438 27.9062 27.9062 34.3437 20 34.3437C12.0937 34.3437 5.65625 27.9062 5.65625 20C5.65625 12.0937 12.0938 5.65625 20 5.65625V5.65625Z" fill="#2C2C2C"/>
<path d="M12.4688 20.75L25.7187 20.75L20.9687 25.5C20.6875 25.7812 20.6875 26.2812 20.9687 26.5625C21.25 26.8437 21.75 26.8437 22.0312 26.5625L28.0938 20.5313C28.1563 20.4688 28.2188 20.375 28.25 20.2813C28.3125 20.0938 28.3125 19.875 28.25 19.7187C28.2188 19.625 28.1563 19.5313 28.0938 19.4688L22.0313 13.4375C21.875 13.2812 21.6875 13.2188 21.5 13.2188C21.3125 13.2188 21.125 13.2812 20.9688 13.4375C20.6875 13.7187 20.6875 14.2188 20.9688 14.5L25.7188 19.25L12.4375 19.25C12.0313 19.25 11.6875 19.5937 11.6875 20C11.6875 20.4062 12.0313 20.75 12.4688 20.75V20.75Z" fill="#2C2C2C"/>
</svg>
