<svg width="48" height="48" viewBox="0 0 48 48" fill="none" xmlns="http://www.w3.org/2000/svg">
<rect width="48" height="48" rx="5" fill="#3CFCA0" fill-opacity="0.3"/>
<path d="M24 12C21.6266 12 19.3066 12.7038 17.3332 14.0224C15.3598 15.3409 13.8217 17.2151 12.9135 19.4078C12.0052 21.6005 11.7676 24.0133 12.2306 26.3411C12.6936 28.6689 13.8365 30.807 15.5147 32.4853C17.193 34.1635 19.3311 35.3064 21.6589 35.7694C23.9867 36.2324 26.3995 35.9948 28.5922 35.0865C30.7849 34.1783 32.6591 32.6402 33.9776 30.6668C35.2962 28.6935 36 26.3734 36 24C36 20.8174 34.7357 17.7652 32.4853 15.5147C30.2348 13.2643 27.1826 12 24 12ZM24 34C22.0222 34 20.0888 33.4135 18.4443 32.3147C16.7998 31.2159 15.5181 29.6541 14.7612 27.8268C14.0043 25.9996 13.8063 23.9889 14.1922 22.0491C14.578 20.1093 15.5304 18.3275 16.9289 16.9289C18.3275 15.5304 20.1093 14.578 22.0491 14.1921C23.9889 13.8063 25.9996 14.0043 27.8268 14.7612C29.6541 15.5181 31.2159 16.7998 32.3147 18.4443C33.4135 20.0888 34 22.0222 34 24C34 26.6522 32.9464 29.1957 31.0711 31.0711C29.1957 32.9464 26.6522 34 24 34Z" fill="white"/>
<path d="M24 21.7C23.7348 21.7 23.4804 21.8054 23.2929 21.9929C23.1054 22.1804 23 22.4348 23 22.7V29.5C23 29.7652 23.1054 30.0196 23.2929 30.2071C23.4804 30.3946 23.7348 30.5 24 30.5C24.2652 30.5 24.5196 30.3946 24.7071 30.2071C24.8946 30.0196 25 29.7652 25 29.5V22.7C25 22.4348 24.8946 22.1804 24.7071 21.9929C24.5196 21.8054 24.2652 21.7 24 21.7ZM24 17.6C23.7293 17.6102 23.4727 17.7236 23.2831 17.917C23.0934 18.1104 22.9849 18.3691 22.98 18.64V18.8C22.9795 18.9305 23.0062 19.0596 23.0584 19.1792C23.1105 19.2988 23.187 19.4062 23.283 19.4946C23.3789 19.5831 23.4922 19.6505 23.6157 19.6928C23.7391 19.735 23.87 19.7511 24 19.74C24.2621 19.7301 24.5107 19.6216 24.6961 19.4361C24.8816 19.2507 24.9901 19.0021 25 18.74V18.5C25.0008 18.3729 24.9746 18.2471 24.9233 18.1308C24.872 18.0146 24.7966 17.9105 24.7021 17.8255C24.6076 17.7404 24.4962 17.6764 24.3752 17.6375C24.2542 17.5987 24.1263 17.5859 24 17.6Z" fill="white"/>
</svg>
