<svg width="48" height="48" viewBox="0 0 48 48" fill="none" xmlns="http://www.w3.org/2000/svg">
<rect width="48" height="48" rx="5" fill="white"/>
<rect width="48" height="48" rx="5" fill="#3CFCA0"/>
<path d="M33.3009 22.08C33.0199 21.7427 32.6683 21.4711 32.2709 21.2845C31.8734 21.0979 31.4399 21.0008 31.0009 21H26.4409L27.0009 19.57C27.2338 18.9439 27.3114 18.2706 27.2269 17.608C27.1425 16.9453 26.8986 16.313 26.5161 15.7653C26.1336 15.2176 25.6239 14.7708 25.0308 14.4634C24.4377 14.1559 23.7789 13.9969 23.1109 14C22.9185 14.0004 22.7303 14.0563 22.5689 14.161C22.4075 14.2656 22.2797 14.4146 22.2009 14.59L19.3509 21H17.0009C16.2052 21 15.4422 21.3161 14.8795 21.8787C14.3169 22.4413 14.0009 23.2044 14.0009 24V31C14.0009 31.7957 14.3169 32.5588 14.8795 33.1214C15.4422 33.684 16.2052 34 17.0009 34H29.7309C30.4327 33.9998 31.1122 33.7535 31.6512 33.3041C32.1902 32.8546 32.5545 32.2304 32.6809 31.54L33.9509 24.54C34.0294 24.1074 34.0119 23.6628 33.8996 23.2377C33.7873 22.8126 33.5829 22.4174 33.3009 22.08ZM19.0009 32H17.0009C16.7357 32 16.4813 31.8947 16.2938 31.7072C16.1062 31.5196 16.0009 31.2653 16.0009 31V24C16.0009 23.7348 16.1062 23.4805 16.2938 23.2929C16.4813 23.1054 16.7357 23 17.0009 23H19.0009V32ZM32.0009 24.18L30.7309 31.18C30.6883 31.413 30.5644 31.6233 30.3813 31.7734C30.1981 31.9236 29.9677 32.0039 29.7309 32H21.0009V22.21L23.7209 16.09C24.0009 16.1717 24.2609 16.3105 24.4845 16.4976C24.7082 16.6848 24.8906 16.9163 25.0203 17.1775C25.1499 17.4388 25.2241 17.724 25.2379 18.0153C25.2518 18.3067 25.2051 18.5977 25.1009 18.87L24.5709 20.3C24.4579 20.6023 24.4198 20.9274 24.4597 21.2476C24.4997 21.5678 24.6165 21.8735 24.8002 22.1388C24.9839 22.404 25.2291 22.6209 25.5148 22.7709C25.8005 22.9209 26.1182 22.9995 26.4409 23H31.0009C31.1478 22.9998 31.2929 23.0319 31.426 23.0942C31.5591 23.1564 31.6768 23.2472 31.7709 23.36C31.8672 23.4714 31.9378 23.6026 31.9775 23.7443C32.0173 23.8861 32.0253 24.0349 32.0009 24.18Z" fill="#2C2C2C"/>
</svg>
