<svg width="72" height="72" viewBox="0 0 72 72" fill="none" xmlns="http://www.w3.org/2000/svg">
<rect width="72" height="72" rx="7.5" fill="white"/>
<rect width="72" height="72" rx="7.5" fill="#1B4949"/>
<path d="M11.9617 51.3125H17.1627" stroke="#3CFCA0" stroke-width="1.2" stroke-linecap="round" stroke-linejoin="round"/>
<path d="M30.324 53.0625H47.8012M32.0687 54.8125H36.6738M39.0687 54.8125H45.2462M35.56 56.5625H39.9411" stroke="#3CFCA0" stroke-width="1.2" stroke-linecap="round" stroke-linejoin="round"/>
<path fill-rule="evenodd" clip-rule="evenodd" d="M26.6714 29.2887C26.622 29.2892 26.5732 29.2996 26.5279 29.3191C26.4826 29.3386 26.4415 29.367 26.4072 29.4024C26.3729 29.4379 26.3459 29.4798 26.3279 29.5258C26.3098 29.5718 26.3011 29.6208 26.3021 29.6701C26.3021 29.93 26.191 30.0482 25.9329 30.0482C25.4254 30.0394 25.4254 30.8068 25.9329 30.7989C26.1814 30.7989 26.3021 30.8689 26.3021 31.1611C26.2951 31.6686 27.0599 31.6686 27.0529 31.1611C27.0529 30.8951 27.1771 30.7989 27.4239 30.7989C27.9314 30.8077 27.9314 30.0412 27.4239 30.0482C27.0887 30.0482 27.0529 29.8574 27.0529 29.6701C27.0536 29.6199 27.0442 29.5699 27.0253 29.5233C27.0063 29.4767 26.9783 29.4344 26.9427 29.3988C26.9071 29.3633 26.8648 29.3352 26.8182 29.3163C26.7716 29.2974 26.7217 29.288 26.6714 29.2887Z" fill="#3CFCA0"/>
<path fill-rule="evenodd" clip-rule="evenodd" d="M24.3975 36.1698C24.2838 36.1698 24.1936 36.266 24.1954 36.3798C24.1954 36.5224 24.1341 36.5871 23.9924 36.5871C23.7141 36.5871 23.7141 37.0027 23.9924 36.9984C24.1289 36.9984 24.1954 37.0369 24.1954 37.1979C24.191 37.4761 24.611 37.4761 24.6066 37.1979C24.6066 37.0518 24.6766 36.9993 24.8114 36.9993C25.0896 36.9993 25.0896 36.5828 24.8114 36.5871C24.6276 36.5871 24.6075 36.4821 24.6075 36.3788C24.6079 36.3512 24.6027 36.3238 24.5922 36.2982C24.5818 36.2726 24.5663 36.2494 24.5467 36.2299C24.5271 36.2104 24.5039 36.195 24.4782 36.1847C24.4526 36.1743 24.4251 36.1693 24.3975 36.1698ZM26.3776 18.6785C26.3416 18.6787 26.3059 18.6861 26.2727 18.7003C26.2396 18.7145 26.2095 18.7351 26.1844 18.761C26.1594 18.7869 26.1397 18.8176 26.1266 18.8512C26.1135 18.8848 26.1072 18.9207 26.1081 18.9567C26.1081 19.1466 26.0268 19.2323 25.8386 19.2323C25.4694 19.2236 25.4694 19.7845 25.8386 19.7792C26.0198 19.7792 26.1081 19.8291 26.1081 20.0435C26.1029 20.4127 26.6603 20.4127 26.655 20.0435C26.655 19.8492 26.746 19.7792 26.9254 19.7792C27.2955 19.788 27.2955 19.2271 26.9254 19.2323C26.6813 19.2323 26.655 19.0923 26.655 18.9567C26.6555 18.9202 26.6486 18.8839 26.6348 18.8501C26.6211 18.8162 26.6007 18.7854 26.5748 18.7595C26.549 18.7337 26.5182 18.7133 26.4843 18.6995C26.4505 18.6857 26.4142 18.6789 26.3776 18.6794V18.6785Z" fill="#3CFCA0"/>
<path fill-rule="evenodd" clip-rule="evenodd" d="M43.6466 18.1456C43.6194 18.1459 43.5926 18.1517 43.5677 18.1624C43.5428 18.1732 43.5202 18.1888 43.5013 18.2083C43.4825 18.2278 43.4676 18.2509 43.4577 18.2762C43.4478 18.3015 43.443 18.3285 43.4436 18.3556C43.4436 18.4983 43.3823 18.563 43.2406 18.563C42.9615 18.563 42.9615 18.9786 43.2406 18.9742C43.3771 18.9742 43.4436 19.0128 43.4436 19.1738C43.4392 19.452 43.8592 19.452 43.8548 19.1738C43.8548 19.0276 43.924 18.9752 44.0587 18.9752C44.3378 18.9752 44.3378 18.5586 44.0587 18.563C43.875 18.563 43.8557 18.458 43.8557 18.3547C43.8561 18.3271 43.8509 18.2997 43.8404 18.2741C43.83 18.2485 43.8145 18.2253 43.7949 18.2058C43.7754 18.1863 43.7521 18.1709 43.7264 18.1606C43.7008 18.1502 43.6733 18.1451 43.6457 18.1456H43.6466Z" fill="#3CFCA0"/>
<path fill-rule="evenodd" clip-rule="evenodd" d="M51.8165 23.5567C51.7804 23.5569 51.7447 23.5643 51.7115 23.5785C51.6784 23.5926 51.6484 23.6133 51.6233 23.6392C51.5982 23.6651 51.5785 23.6958 51.5654 23.7294C51.5523 23.763 51.546 23.7989 51.547 23.8349C51.547 24.0239 51.4665 24.1105 51.2783 24.1105C50.9082 24.1018 50.9082 24.6618 51.2783 24.6574C51.4595 24.6574 51.547 24.7073 51.547 24.9208C51.5417 25.2909 52.1 25.2909 52.0947 24.9208C52.0947 24.7274 52.1848 24.6574 52.3642 24.6574C52.7343 24.6662 52.7343 24.1053 52.3642 24.1105C52.121 24.1105 52.0947 23.9705 52.0947 23.8349C52.0953 23.7982 52.0885 23.7618 52.0747 23.7277C52.061 23.6937 52.0405 23.6628 52.0145 23.6368C51.9886 23.6109 51.9577 23.5904 51.9236 23.5766C51.8896 23.5629 51.8532 23.5561 51.8165 23.5567Z" fill="#3CFCA0"/>
<path fill-rule="evenodd" clip-rule="evenodd" d="M49.5272 30.5348C49.4134 30.5348 49.3233 30.6311 49.3251 30.7448C49.3251 30.8866 49.2638 30.9522 49.1221 30.9522C48.8438 30.9522 48.8438 31.3678 49.1221 31.3634C49.2586 31.3634 49.3251 31.4019 49.3251 31.5629C49.3207 31.8412 49.7407 31.8412 49.7363 31.5629C49.7363 31.4168 49.8063 31.3643 49.9411 31.3643C50.2193 31.3643 50.2193 30.9478 49.9411 30.9522C49.7573 30.9522 49.7372 30.8472 49.7372 30.7439C49.7376 30.7163 49.7324 30.6889 49.7219 30.6633C49.7115 30.6377 49.696 30.6145 49.6764 30.595C49.6568 30.5755 49.6335 30.5601 49.6079 30.5497C49.5823 30.5394 49.5548 30.5343 49.5272 30.5348ZM49.2358 37.3922C49.1865 37.3927 49.1377 37.4031 49.0924 37.4226C49.047 37.4421 49.006 37.4705 48.9716 37.5059C48.9373 37.5414 48.9103 37.5833 48.8923 37.6293C48.8743 37.6753 48.8655 37.7243 48.8666 37.7737C48.8666 38.0335 48.7554 38.1517 48.4973 38.1517C47.9898 38.1429 47.9898 38.9094 48.4973 38.9024C48.7458 38.9024 48.8666 38.9716 48.8666 39.2647C48.8596 39.7722 49.6243 39.7722 49.6173 39.2647C49.6173 38.9978 49.7416 38.9024 49.9883 38.9024C50.4958 38.9112 50.4958 38.1447 49.9883 38.1517C49.6532 38.1517 49.6173 37.96 49.6173 37.7737C49.618 37.7234 49.6086 37.6734 49.5897 37.6268C49.5708 37.5802 49.5427 37.5379 49.5072 37.5023C49.4716 37.4668 49.4293 37.4387 49.3826 37.4198C49.336 37.4009 49.2861 37.3915 49.2358 37.3922Z" fill="#3CFCA0"/>
<path fill-rule="evenodd" clip-rule="evenodd" d="M28.3567 23.4726C28.3207 23.473 28.2852 23.4805 28.2521 23.4947C28.219 23.5089 28.1891 23.5296 28.1641 23.5555C28.1391 23.5814 28.1195 23.612 28.1065 23.6456C28.0934 23.6791 28.0872 23.7149 28.0881 23.7509C28.0881 23.9399 28.0067 24.0265 27.8186 24.0265C27.4485 24.0178 27.4485 24.5778 27.8186 24.5734C27.9997 24.5734 28.0881 24.6233 28.0881 24.8368C28.0829 25.2069 28.6394 25.2069 28.635 24.8368C28.635 24.6425 28.7251 24.5734 28.9054 24.5734C29.2746 24.5821 29.2746 24.0213 28.9054 24.0265C28.6604 24.0265 28.6341 23.8865 28.6341 23.7509C28.6347 23.7142 28.6279 23.6779 28.6142 23.6439C28.6005 23.6099 28.5801 23.5791 28.5542 23.5532C28.5284 23.5272 28.4976 23.5067 28.4636 23.4929C28.4297 23.479 28.3934 23.4722 28.3567 23.4726ZM35.0715 15.5364C35.0437 15.5368 35.0162 15.5428 34.9907 15.5538C34.9652 15.5649 34.9421 15.5809 34.9228 15.6009C34.9034 15.6209 34.8882 15.6445 34.878 15.6703C34.8678 15.6962 34.8628 15.7238 34.8632 15.7517C34.8632 15.8987 34.8002 15.9652 34.655 15.9652C34.3689 15.9608 34.3689 16.3913 34.655 16.3878C34.795 16.3878 34.8632 16.4263 34.8632 16.5917C34.8597 16.8769 35.2902 16.8769 35.2859 16.5917C35.2859 16.4412 35.3559 16.3878 35.495 16.3878C35.7802 16.3921 35.7802 15.9608 35.495 15.9652C35.306 15.9652 35.285 15.8567 35.285 15.7517C35.2853 15.7235 35.2801 15.6955 35.2695 15.6694C35.2589 15.6433 35.2432 15.6196 35.2233 15.5996C35.2034 15.5796 35.1797 15.5638 35.1537 15.5531C35.1276 15.5424 35.0997 15.537 35.0715 15.5373V15.5364Z" fill="#3CFCA0"/>
<path d="M31.8814 36.6038C30.0859 38.2864 28.9563 40.7338 28.9563 43.4603C28.9563 44.6546 29.1838 45.8368 29.616 46.941C30.9635 43.4953 34.1582 41.2448 37.7054 41.243C41.2562 41.243 44.4517 43.5005 45.7957 46.9489C46.2305 45.8411 46.4546 44.6573 46.4554 43.4603C46.4554 40.6961 45.2943 38.2181 43.455 36.5338" stroke="#3CFCA0" stroke-width="1.2" stroke-miterlimit="100" stroke-linejoin="round"/>
<path d="M33.1216 40.0284C33.644 39.8001 34.1803 39.6119 34.7228 39.4649M35.8411 39.2068C36.0318 39.1718 35.6495 39.2322 35.8411 39.2068M37.1247 39.0861C38.866 38.9994 40.6238 39.3136 42.2557 40.0293" stroke="#3CFCA0" stroke-width="1.2" stroke-miterlimit="100" stroke-linecap="round" stroke-linejoin="round"/>
<path d="M31.5813 33.0076C31.5909 36.1392 32.493 39.2892 34.1634 42.0157C35.2922 41.5537 36.483 41.2457 37.7054 41.2431C38.9357 41.2431 40.1528 41.4828 41.2868 41.9466C42.9519 39.2174 43.8287 36.1392 43.8304 33.0076C43.8217 28.0218 41.9255 23.2557 38.0143 19.8204C35.013 22.4656 32.8238 25.8956 31.9715 29.6056M31.6942 31.0791C31.6653 31.2252 31.639 31.3713 31.6145 31.5183" stroke="#3CFCA0" stroke-width="1.2" stroke-miterlimit="100" stroke-linecap="round" stroke-linejoin="round"/>
<path d="M21.8848 43.3123C22.7839 43.0112 23.7478 42.9592 24.6741 43.162C25.6004 43.3648 26.4545 43.8148 27.1455 44.4641C27.8365 45.1134 28.3388 45.9378 28.5988 46.8497C28.8588 47.7615 28.8669 48.7268 28.6223 49.643V49.643C29.1884 48.3313 30.4983 47.354 31.8974 47.641C32.1048 48.4862 32.4294 48.9823 32.7899 49.3665C32.3192 48.8954 32.0358 48.2692 31.9924 47.6047C31.949 46.9402 32.1486 46.2825 32.5541 45.7542C32.9595 45.2259 33.5431 44.8629 34.1963 44.7329C34.8494 44.6029 35.5275 44.7147 36.1044 45.0475L36.1131 46.5017V41.4748C37.0056 41.1388 37.9314 41.1922 38.8755 41.4748V48.0601L38.8843 44.9521C39.9605 44.3308 41.4358 44.5286 42.3143 45.4071C42.5692 45.6621 42.7715 45.9648 42.9095 46.2979C43.0475 46.6311 43.1186 46.9881 43.1186 47.3487C43.1186 47.7093 43.0475 48.0664 42.9095 48.3995C42.7715 48.7327 42.5692 49.0354 42.3143 49.2903C42.8139 48.8318 42.9005 48.222 43.2365 47.6138C44.6365 47.326 46.264 48.1695 46.831 49.4802C46.6383 48.7583 46.7291 47.9901 47.0848 47.333M48.1943 46.1902C48.8662 45.8025 49.6647 45.6975 50.4141 45.8983C51.1634 46.0992 51.8024 46.5894 52.1904 47.2612C52.9989 48.6612 52.5194 50.4987 51.1203 51.3063H19.034C17.9849 49.5231 18.1091 47.1912 19.1758 45.4683M20.1094 44.3702C20.2188 44.2451 20.3343 44.1243 20.4559 44.0097" stroke="#3CFCA0" stroke-width="1.2" stroke-linecap="round" stroke-linejoin="round"/>
<path d="M41.0016 29.7253C41.0029 30.1425 40.9218 30.5557 40.763 30.9415C40.6043 31.3272 40.371 31.6778 40.0765 31.9732C39.782 32.2686 39.4321 32.5029 39.0468 32.6629C38.6616 32.8228 38.2486 32.9051 37.8315 32.9051C36.9871 32.9056 36.1771 32.571 35.5791 31.9749C34.9812 31.3787 34.6442 30.5697 34.6421 29.7253V29.7253C34.6437 28.8806 34.9805 28.071 35.5785 27.4744C36.1764 26.8777 36.9867 26.5427 37.8315 26.543C38.8552 26.543 39.7608 27.0251 40.3392 27.775" stroke="#3CFCA0" stroke-width="1.2" stroke-miterlimit="34.178" stroke-linecap="round" stroke-linejoin="round"/>
<path d="M54.0391 51.3125H59.1561" stroke="#3CFCA0" stroke-width="1.2" stroke-linecap="round" stroke-linejoin="round"/>
</svg>
