<svg width="26" height="19" viewBox="0 0 26 19" fill="none" xmlns="http://www.w3.org/2000/svg">
<path d="M11.5 2V13C11.4982 14.5907 10.8655 16.1158 9.74065 17.2407C8.61583 18.3655 7.09075 18.9982 5.5 19C5.23478 19 4.98043 18.8946 4.79289 18.7071C4.60536 18.5196 4.5 18.2652 4.5 18C4.5 17.7348 4.60536 17.4804 4.79289 17.2929C4.98043 17.1054 5.23478 17 5.5 17C6.5605 16.9988 7.57722 16.577 8.32711 15.8271C9.077 15.0772 9.49881 14.0605 9.5 13V12H2C1.46975 11.9994 0.961398 11.7885 0.586456 11.4135C0.211515 11.0386 0.000606423 10.5302 0 10V2C0.000606423 1.46975 0.211515 0.961398 0.586456 0.586456C0.961398 0.211515 1.46975 0.000606423 2 0H9.5C10.0302 0.000606423 10.5386 0.211515 10.9135 0.586456C11.2885 0.961398 11.4994 1.46975 11.5 2ZM24 0H16.5C15.9698 0.000606423 15.4614 0.211515 15.0865 0.586456C14.7115 0.961398 14.5006 1.46975 14.5 2V10C14.5006 10.5302 14.7115 11.0386 15.0865 11.4135C15.4614 11.7885 15.9698 11.9994 16.5 12H24V13C23.9988 14.0605 23.577 15.0772 22.8271 15.8271C22.0772 16.577 21.0605 16.9988 20 17C19.7348 17 19.4804 17.1054 19.2929 17.2929C19.1054 17.4804 19 17.7348 19 18C19 18.2652 19.1054 18.5196 19.2929 18.7071C19.4804 18.8946 19.7348 19 20 19C21.5907 18.9982 23.1158 18.3655 24.2407 17.2407C25.3655 16.1158 25.9982 14.5907 26 13V2C25.9994 1.46975 25.7885 0.961398 25.4135 0.586456C25.0386 0.211515 24.5302 0.000606423 24 0Z" fill="#1B4949"/>
</svg>
