<svg width="26" height="19" viewBox="0 0 26 19" fill="none" xmlns="http://www.w3.org/2000/svg">
<path d="M14.5 2V13C14.5018 14.5907 15.1345 16.1158 16.2593 17.2407C17.3842 18.3655 18.9093 18.9982 20.5 19C20.7652 19 21.0196 18.8946 21.2071 18.7071C21.3946 18.5196 21.5 18.2652 21.5 18C21.5 17.7348 21.3946 17.4804 21.2071 17.2929C21.0196 17.1054 20.7652 17 20.5 17C19.4395 16.9988 18.4228 16.577 17.6729 15.8271C16.923 15.0772 16.5012 14.0605 16.5 13V12H24C24.5302 11.9994 25.0386 11.7885 25.4135 11.4135C25.7885 11.0386 25.9994 10.5302 26 10V2C25.9994 1.46975 25.7885 0.961398 25.4135 0.586456C25.0386 0.211515 24.5302 0.000606423 24 0H16.5C15.9698 0.000606423 15.4614 0.211515 15.0865 0.586456C14.7115 0.961398 14.5006 1.46975 14.5 2ZM2 0H9.5C10.0302 0.000606423 10.5386 0.211515 10.9135 0.586456C11.2885 0.961398 11.4994 1.46975 11.5 2V10C11.4994 10.5302 11.2885 11.0386 10.9135 11.4135C10.5386 11.7885 10.0302 11.9994 9.5 12H2V13C2.00119 14.0605 2.423 15.0772 3.17289 15.8271C3.92278 16.577 4.9395 16.9988 6 17C6.26522 17 6.51957 17.1054 6.70711 17.2929C6.89464 17.4804 7 17.7348 7 18C7 18.2652 6.89464 18.5196 6.70711 18.7071C6.51957 18.8946 6.26522 19 6 19C4.40925 18.9982 2.88417 18.3655 1.75935 17.2407C0.634518 16.1158 0.00179863 14.5907 0 13V2C0.000606537 1.46975 0.211515 0.961398 0.586456 0.586456C0.961397 0.211515 1.46975 0.000606423 2 0Z" fill="#1B4949"/>
</svg>
