<svg width="48" height="48" viewBox="0 0 48 48" fill="none" xmlns="http://www.w3.org/2000/svg">
<rect width="48" height="48" rx="5" fill="white"/>
<rect width="48" height="48" rx="5" fill="#3CFCA0"/>
<path d="M27.2025 25.02L23.5575 24.4725L21.93 21.1875C21.8139 20.9536 21.6347 20.7568 21.4128 20.6191C21.1908 20.4815 20.9349 20.4086 20.6737 20.4086C20.4126 20.4086 20.1566 20.4815 19.9347 20.6191C19.7127 20.7568 19.5336 20.9536 19.4175 21.1875L17.775 24.4875L14.145 25.02C13.8856 25.0558 13.6416 25.1642 13.4411 25.3327C13.2407 25.5013 13.0921 25.7231 13.0125 25.9725C12.9309 26.2215 12.9206 26.4884 12.9829 26.7429C13.0452 26.9974 13.1776 27.2294 13.365 27.4125L15.9975 30L15.3825 33.615C15.3337 33.8743 15.359 34.142 15.4555 34.3875C15.552 34.633 15.7157 34.8463 15.928 35.0029C16.1402 35.1596 16.3923 35.2532 16.6553 35.273C16.9184 35.2928 17.1817 35.2381 17.415 35.115L20.6625 33.4125L23.9325 35.115C24.1658 35.2381 24.4291 35.2928 24.6921 35.273C24.9552 35.2532 25.2073 35.1596 25.4195 35.0029C25.6317 34.8463 25.7955 34.633 25.892 34.3875C25.9885 34.142 26.0138 33.8743 25.965 33.615L25.3575 30L27.9825 27.4425C28.1699 27.2594 28.3022 27.0274 28.3645 26.7729C28.4268 26.5184 28.4166 26.2515 28.335 26.0025C28.2601 25.7475 28.1136 25.5193 27.9129 25.3452C27.7121 25.171 27.4655 25.0581 27.2025 25.02ZM24.3075 28.8975C24.1292 29.0692 23.9962 29.2823 23.9203 29.5179C23.8444 29.7534 23.828 30.0041 23.8725 30.2475L24.4575 33.6675L21.3825 32.055C21.1658 31.9381 20.9237 31.8763 20.6775 31.875C20.4161 31.8686 20.1575 31.9307 19.9275 32.055L16.8525 33.6675L17.445 30.2475C17.4885 30.0035 17.4709 29.7524 17.3937 29.5168C17.3165 29.2812 17.1821 29.0685 17.0025 28.8975L14.5575 26.475L18 25.9725C18.2464 25.9403 18.4809 25.8474 18.6825 25.7021C18.8841 25.5567 19.0465 25.3636 19.155 25.14L20.6925 22.0275L22.1925 25.14C22.301 25.3636 22.4633 25.5567 22.6649 25.7021C22.8665 25.8474 23.1011 25.9403 23.3475 25.9725L26.7825 26.475L24.3075 28.8975ZM34.23 15.87L31.89 15.5325L30.8475 13.4175C30.7489 13.2183 30.5966 13.0506 30.4077 12.9334C30.2189 12.8162 30.001 12.754 29.7787 12.754C29.5564 12.754 29.3386 12.8162 29.1497 12.9334C28.9609 13.0506 28.8086 13.2183 28.71 13.4175L27.6675 15.5325L25.3275 15.87C25.1079 15.9024 24.9018 15.9953 24.7322 16.1384C24.5626 16.2815 24.4363 16.4691 24.3675 16.68C24.2967 16.8913 24.2873 17.1183 24.3404 17.3347C24.3935 17.5511 24.5069 17.748 24.6675 17.9025L26.355 19.5525L25.9575 21.885C25.9327 22.0542 25.9447 22.2267 25.9925 22.3909C26.0403 22.555 26.1228 22.707 26.2345 22.8365C26.3462 22.9659 26.4844 23.0699 26.6397 23.1412C26.7951 23.2126 26.964 23.2497 27.135 23.25C27.328 23.2489 27.518 23.2027 27.69 23.115L29.775 22.0125L31.8675 23.115C32.0647 23.2195 32.2873 23.2664 32.51 23.2506C32.7326 23.2348 32.9463 23.1568 33.1268 23.0255C33.3073 22.8943 33.4474 22.715 33.531 22.508C33.6147 22.3011 33.6385 22.0749 33.6 21.855L33.195 19.53L34.89 17.88C35.0505 17.7255 35.1639 17.5286 35.217 17.3122C35.2702 17.0958 35.2608 16.8688 35.19 16.6575C35.117 16.4512 34.989 16.2688 34.8197 16.13C34.6505 15.9912 34.4466 15.9013 34.23 15.87ZM32.07 18.5625C31.9196 18.7044 31.8072 18.8817 31.743 19.0783C31.6788 19.2748 31.6649 19.4842 31.7025 19.6875L32.01 21.5175L30.375 20.655C30.1917 20.5566 29.9868 20.505 29.7787 20.505C29.5706 20.505 29.3658 20.5566 29.1825 20.655L27.54 21.5175L27.855 19.6875C27.8912 19.4843 27.8766 19.2752 27.8125 19.0789C27.7484 18.8826 27.6367 18.7052 27.4875 18.5625L26.16 17.25L27.9975 16.9875C28.2018 16.9572 28.3959 16.8779 28.563 16.7565C28.7301 16.6351 28.8655 16.475 28.9575 16.29L29.775 14.64L30.6 16.305C30.692 16.49 30.8273 16.6501 30.9945 16.7715C31.1616 16.8929 31.3556 16.9722 31.56 17.0025L33.3975 17.25L32.07 18.5625Z" fill="#2C2C2C"/>
</svg>
