<svg width="72" height="72" viewBox="0 0 72 72" fill="none" xmlns="http://www.w3.org/2000/svg">
<rect width="72" height="72" rx="7.5" fill="white"/>
<rect width="72" height="72" rx="7.5" fill="#1B4949"/>
<path d="M26.828 27.8762L32.5933 33.6415C33.1174 34.1656 33.8163 34.4277 34.4277 34.4277C35.0392 34.4277 35.738 34.1656 36.2621 33.6415L42.0274 27.8762C43.5124 26.6532 44.2113 24.7315 43.8618 22.8097C43.5124 20.7132 41.8527 19.0535 39.8436 18.6168C38.2713 18.2674 36.6116 18.7041 35.3886 19.665C34.9518 20.0144 34.6024 20.3638 34.3404 20.8006C34.0783 20.3638 33.7289 20.0144 33.2921 19.665C32.0692 18.7041 30.4095 18.2674 28.8371 18.6168C26.828 19.0535 25.1683 20.7132 24.8189 22.8097C24.6442 24.7315 25.343 26.6532 26.828 27.8762ZM26.6533 23.0718C26.9154 21.6741 27.9636 20.6259 29.3613 20.2765C30.4095 20.0144 31.4577 20.2765 32.3313 20.9753C33.1174 21.6741 33.6416 22.635 33.6416 23.6832C33.6416 24.2074 33.991 24.5568 34.5151 24.5568C35.0392 24.5568 35.3886 24.2074 35.3886 23.6832C35.3886 22.635 35.8254 21.6741 36.6989 20.9753C37.5724 20.2765 38.6207 20.0144 39.6689 20.2765C40.9792 20.5385 42.1148 21.6741 42.3768 23.0718C42.6389 24.3821 42.1148 25.6924 41.0666 26.4785C40.9792 26.5659 40.8918 26.5659 40.8918 26.6532L35.1266 32.4185C34.7771 32.768 34.253 32.768 33.9036 32.4185L28.313 26.828C28.2257 26.7406 28.2257 26.6532 28.1383 26.6532C26.9154 25.7797 26.4786 24.4694 26.6533 23.0718ZM43.2504 34.6897V36.4368H44.5607V37.7471H46.3077V36.4368H47.618V34.6897H46.3077V33.3794H44.5607V34.6897H43.2504ZM17.4813 21.15H19.2283V19.8397H20.5386V18.0927H19.2283V16.7824H17.4813V18.0927H16.171V19.8397H17.4813V21.15ZM50.8501 13.2882H52.5971V12.4147H53.4707V10.6677H52.5971V9.79413H50.8501V10.6677H49.9766V12.4147H50.8501V13.2882ZM59.8474 42.9882H51.1121C50.588 42.9882 50.2386 43.3377 50.2386 43.8618V46.0456C49.2777 45.6088 47.7927 44.91 46.3951 43.9491C43.6871 42.1147 33.5542 38.708 33.0301 38.6206C32.5933 38.5332 28.8371 37.6597 27.7016 39.9309C26.566 42.2021 28.6624 44.3859 28.7498 44.4732C28.8371 44.5606 28.8371 44.5606 28.9245 44.5606L34.7771 48.2294C33.7289 48.8409 31.9818 49.6271 29.798 49.9765L26.6533 45.9582C26.3913 45.5215 24.8189 43.0756 22.7224 42.6388C21.8489 42.4641 20.9754 42.6388 20.1892 43.0756C18.0054 44.4732 18.5295 46.7444 19.0536 47.7927L19.403 48.3168C16.7824 47.4432 14.948 46.5697 14.948 46.4824C14.948 46.4824 14.8607 46.4824 14.8607 46.395C13.6377 45.9582 11.2792 45.7835 10.3183 47.7053C9.18273 49.9765 11.2792 52.1603 11.3666 52.2477C11.4539 52.335 11.4539 52.335 11.5413 52.335C11.6286 52.6844 18.5295 56.9647 26.566 57.8382C29.536 58.1877 33.0301 58.3624 36.4368 58.3624C40.5424 58.3624 44.648 58.1003 47.7927 57.3141L47.356 55.6544C41.9401 56.9647 32.8554 56.79 26.7407 56.0912C19.6651 55.305 13.201 51.5488 12.3274 51.0247C12.0654 50.7627 11.1919 49.6271 11.716 48.5788C12.1527 47.618 13.8124 48.0547 14.0745 48.1421C14.7733 48.4915 19.7524 50.85 25.6051 51.7235C31.9818 52.5971 36.5242 49.103 36.7863 48.9282C37.0483 48.7535 37.1357 48.4915 37.1357 48.2294C37.1357 47.9674 36.961 47.7053 36.6989 47.5306L29.798 43.2503C29.536 42.9882 28.6624 41.8527 29.1866 40.8044C29.6233 39.9309 31.7198 40.193 32.506 40.3677C32.5933 40.3677 42.901 43.8618 45.4342 45.5215C47.356 46.8318 49.3651 47.618 50.326 48.0547V59.5853C50.326 60.1094 50.6754 60.4588 51.1995 60.4588H59.9348C60.4589 60.4588 60.8083 60.1094 60.8083 59.5853V43.8618C60.721 43.3377 60.2842 42.9882 59.8474 42.9882ZM25.8671 49.9765C24.4695 49.8018 23.1592 49.4524 21.8489 49.1903L20.3639 47.0065C20.2766 46.8318 19.5777 45.5215 20.9754 44.648C21.3248 44.3859 21.6742 44.2985 22.111 44.3859C23.3339 44.6479 24.5569 46.3077 24.9936 46.9191C24.9936 46.9191 24.9936 47.0065 25.081 47.0065L27.5268 50.0638C27.0027 50.0638 26.4786 50.0638 25.8671 49.9765ZM58.9739 58.7118H51.9857V44.7353H58.9739V58.7118Z" fill="#3CFCA0"/>
</svg>
