<svg width="72" height="72" viewBox="0 0 72 72" fill="none" xmlns="http://www.w3.org/2000/svg">
<rect width="72" height="72" rx="7.5" fill="white"/>
<rect width="72" height="72" rx="7.5" fill="#1B4949"/>
<g clip-path="url(#clip0_891_5856)">
<path d="M57.4016 24.2074C58.0927 24.2074 58.7682 24.0024 59.3428 23.6185C59.9174 23.2346 60.3653 22.6888 60.6297 22.0504C60.8942 21.4119 60.9634 20.7094 60.8286 20.0316C60.6937 19.3538 60.361 18.7312 59.8723 18.2425C59.3836 17.7539 58.7611 17.4211 58.0833 17.2863C57.4055 17.1514 56.7029 17.2206 56.0644 17.4851C55.426 17.7496 54.8803 18.1974 54.4963 18.772C54.1124 19.3466 53.9075 20.0222 53.9075 20.7132C53.9086 21.6396 54.2771 22.5277 54.9322 23.1827C55.5872 23.8377 56.4752 24.2062 57.4016 24.2074ZM57.4016 18.9662C57.7471 18.9662 58.0849 19.0686 58.3722 19.2606C58.6595 19.4526 58.8834 19.7254 59.0157 20.0447C59.1479 20.3639 59.1825 20.7152 59.1151 21.0541C59.0477 21.393 58.8813 21.7043 58.6369 21.9486C58.3926 22.1929 58.0813 22.3593 57.7424 22.4267C57.4035 22.4941 57.0523 22.4595 56.733 22.3273C56.4138 22.1951 56.1409 21.9712 55.949 21.6839C55.757 21.3965 55.6545 21.0588 55.6545 20.7132C55.655 20.25 55.8392 19.8059 56.1667 19.4784C56.4943 19.1509 56.9384 18.9666 57.4016 18.9662Z" fill="#3CFCA0"/>
<path d="M60.4587 16.3456C60.9412 16.3456 61.3323 15.9545 61.3323 15.472C61.3323 14.9896 60.9412 14.5985 60.4587 14.5985C59.9763 14.5985 59.5852 14.9896 59.5852 15.472C59.5852 15.9545 59.9763 16.3456 60.4587 16.3456Z" fill="#3CFCA0"/>
<path d="M11.1045 20.7132C11.1045 21.4043 11.3094 22.0799 11.6934 22.6545C12.0773 23.2291 12.623 23.6769 13.2615 23.9414C13.8999 24.2058 14.6025 24.275 15.2803 24.1402C15.9581 24.0054 16.5807 23.6726 17.0693 23.1839C17.558 22.6953 17.8908 22.0727 18.0256 21.3949C18.1604 20.7171 18.0912 20.0146 17.8268 19.3761C17.5623 18.7376 17.1144 18.1919 16.5398 17.808C15.9652 17.424 15.2897 17.2191 14.5986 17.2191C13.6723 17.2203 12.7842 17.5888 12.1292 18.2438C11.4741 18.8988 11.1056 19.7869 11.1045 20.7132ZM14.5986 18.9662C14.9441 18.9662 15.2819 19.0686 15.5692 19.2606C15.8565 19.4526 16.0805 19.7254 16.2127 20.0447C16.3449 20.3639 16.3795 20.7152 16.3121 21.0541C16.2447 21.393 16.0783 21.7043 15.834 21.9486C15.5896 22.1929 15.2783 22.3593 14.9394 22.4267C14.6005 22.4941 14.2493 22.4595 13.93 22.3273C13.6108 22.1951 13.338 21.9712 13.146 21.6838C12.954 21.3965 12.8516 21.0588 12.8516 20.7132C12.852 20.25 13.0362 19.8059 13.3638 19.4784C13.6913 19.1509 14.1354 18.9666 14.5986 18.9662Z" fill="#3CFCA0"/>
<path d="M11.5413 16.3456C12.0237 16.3456 12.4148 15.9545 12.4148 15.472C12.4148 14.9896 12.0237 14.5985 11.5413 14.5985C11.0588 14.5985 10.6677 14.9896 10.6677 15.472C10.6677 15.9545 11.0588 16.3456 11.5413 16.3456Z" fill="#3CFCA0"/>
<path d="M60.8957 51.2868C60.8957 50.5957 60.6908 49.9202 60.3068 49.3456C59.9229 48.7709 59.3772 48.3231 58.7387 48.0586C58.1003 47.7942 57.3977 47.725 56.7199 47.8598C56.0421 47.9946 55.4195 48.3274 54.9309 48.8161C54.4422 49.3047 54.1094 49.9273 53.9746 50.6051C53.8398 51.2829 53.909 51.9855 54.1734 52.6239C54.4379 53.2624 54.8858 53.8081 55.4604 54.192C56.035 54.576 56.7105 54.7809 57.4016 54.7809C58.3279 54.7797 59.216 54.4112 59.871 53.7562C60.5261 53.1012 60.8946 52.2131 60.8957 51.2868ZM57.4016 53.0338C57.0561 53.0338 56.7183 52.9314 56.431 52.7394C56.1437 52.5474 55.9197 52.2746 55.7875 51.9554C55.6553 51.6361 55.6207 51.2848 55.6881 50.9459C55.7555 50.6071 55.9219 50.2958 56.1662 50.0514C56.4106 49.8071 56.7219 49.6407 57.0608 49.5733C57.3997 49.5059 57.7509 49.5405 58.0702 49.6727C58.3894 49.8049 58.6622 50.0289 58.8542 50.3162C59.0462 50.6035 59.1487 50.9412 59.1487 51.2868C59.1482 51.75 58.964 52.1941 58.6364 52.5216C58.3089 52.8492 57.8648 53.0334 57.4016 53.0338Z" fill="#3CFCA0"/>
<path d="M60.4587 57.4015C60.9412 57.4015 61.3323 57.0104 61.3323 56.5279C61.3323 56.0455 60.9412 55.6544 60.4587 55.6544C59.9763 55.6544 59.5852 56.0455 59.5852 56.5279C59.5852 57.0104 59.9763 57.4015 60.4587 57.4015Z" fill="#3CFCA0"/>
<path d="M14.5986 47.7927C13.9075 47.7927 13.232 47.9976 12.6574 48.3815C12.0828 48.7655 11.6349 49.3112 11.3705 49.9496C11.106 50.5881 11.0368 51.2907 11.1716 51.9685C11.3065 52.6462 11.6392 53.2688 12.1279 53.7575C12.6166 54.2462 13.2392 54.5789 13.9169 54.7138C14.5947 54.8486 15.2973 54.7794 15.9358 54.5149C16.5742 54.2505 17.1199 53.8026 17.5039 53.228C17.8878 52.6534 18.0927 51.9779 18.0927 51.2868C18.0916 50.3604 17.7231 49.4724 17.068 48.8173C16.413 48.1623 15.525 47.7938 14.5986 47.7927ZM14.5986 53.0338C14.2531 53.0338 13.9153 52.9314 13.628 52.7394C13.3407 52.5474 13.1168 52.2746 12.9845 51.9554C12.8523 51.6361 12.8177 51.2848 12.8851 50.9459C12.9525 50.607 13.1189 50.2958 13.3633 50.0514C13.6076 49.8071 13.9189 49.6407 14.2578 49.5733C14.5967 49.5059 14.9479 49.5405 15.2672 49.6727C15.5864 49.8049 15.8593 50.0289 16.0512 50.3162C16.2432 50.6035 16.3457 50.9412 16.3457 51.2868C16.3452 51.75 16.161 52.1941 15.8335 52.5216C15.5059 52.8492 15.0618 53.0334 14.5986 53.0338Z" fill="#3CFCA0"/>
<path d="M11.5413 57.4015C12.0237 57.4015 12.4148 57.0104 12.4148 56.5279C12.4148 56.0455 12.0237 55.6544 11.5413 55.6544C11.0588 55.6544 10.6677 56.0455 10.6677 56.5279C10.6677 57.0104 11.0588 57.4015 11.5413 57.4015Z" fill="#3CFCA0"/>
<path d="M63.7412 35.3069C54.5364 24.6367 44.8205 19.4436 34.8392 19.8629C19.1396 20.5289 8.65206 34.7596 8.21311 35.3654C8.07706 35.5529 8.02108 35.7868 8.05749 36.0156C8.0939 36.2445 8.21971 36.4494 8.40725 36.5855C8.59479 36.7215 8.8287 36.7775 9.05751 36.7411C9.28632 36.7047 9.4913 36.5789 9.62735 36.3913C9.72999 36.2494 20.0752 22.231 34.9248 21.6086C44.3366 21.226 53.5833 26.2077 62.4174 36.4486C62.5687 36.6241 62.7835 36.7322 63.0147 36.7493C63.2458 36.7664 63.4742 36.691 63.6497 36.5396C63.8252 36.3883 63.9334 36.1734 63.9504 35.9423C63.9675 35.7112 63.8921 35.4828 63.7407 35.3073L63.7412 35.3069ZM23.1548 47.0851C22.9495 46.9804 22.7112 46.9609 22.4916 47.0308C22.272 47.1008 22.0889 47.2545 21.9819 47.4586C21.8749 47.6628 21.8528 47.9008 21.9203 48.1212C21.9878 48.3416 22.1395 48.5264 22.3424 48.6356C22.4683 48.7 22.6073 48.7344 22.7486 48.7361C22.9085 48.7366 23.0654 48.6928 23.2019 48.6095C23.3383 48.5262 23.449 48.4068 23.5217 48.2644C23.6284 48.0591 23.6497 47.8201 23.581 47.5992C23.5123 47.3783 23.3591 47.1935 23.1548 47.0851ZM25.854 48.343C25.6942 48.2773 25.5185 48.2605 25.3492 48.2947C25.1798 48.3289 25.0244 48.4126 24.9026 48.5351C24.7808 48.6576 24.6981 48.8135 24.6649 48.9831C24.6317 49.1526 24.6495 49.3282 24.716 49.4876C24.7826 49.647 24.895 49.7831 25.0389 49.8787C25.1828 49.9743 25.3519 50.025 25.5246 50.0245C25.6974 50.024 25.8661 49.9723 26.0095 49.8759C26.1529 49.7795 26.2645 49.6427 26.3301 49.4829C26.374 49.3769 26.3965 49.2631 26.3963 49.1484C26.3961 49.0336 26.3732 48.9199 26.329 48.814C26.2848 48.7081 26.22 48.6119 26.1385 48.5311C26.057 48.4503 25.9603 48.3863 25.854 48.343ZM20.5692 45.5957C20.4237 45.5044 20.2544 45.4583 20.0827 45.463C19.911 45.4678 19.7445 45.5233 19.6043 45.6225C19.4641 45.7217 19.3564 45.8602 19.2947 46.0205C19.2331 46.1808 19.2203 46.3558 19.2579 46.5234C19.2956 46.691 19.382 46.8437 19.5063 46.9623C19.6306 47.0808 19.7872 47.16 19.9564 47.1897C20.1256 47.2194 20.2997 47.1983 20.457 47.1292C20.6142 47.0601 20.7475 46.9459 20.84 46.8012C20.9022 46.7045 20.9446 46.5964 20.9647 46.4832C20.9848 46.37 20.9822 46.2539 20.957 46.1418C20.9318 46.0296 20.8845 45.9235 20.8179 45.8298C20.7514 45.736 20.6668 45.6565 20.5692 45.5957ZM15.1882 43.5604C15.3672 43.5613 15.5421 43.5072 15.6893 43.4055C15.8365 43.3038 15.9489 43.1593 16.0114 42.9916C16.0738 42.8238 16.0832 42.641 16.0383 42.4678C15.9934 42.2945 15.8964 42.1393 15.7604 42.023C15.6732 41.9484 15.5722 41.8918 15.4631 41.8562C15.354 41.8207 15.239 41.807 15.1247 41.8159C15.0103 41.8249 14.8988 41.8562 14.7965 41.9082C14.6943 41.9602 14.6033 42.0319 14.5287 42.1191C14.4542 42.2063 14.3975 42.3073 14.362 42.4163C14.3265 42.5254 14.3128 42.6404 14.3217 42.7548C14.3306 42.8692 14.362 42.9807 14.414 43.0829C14.466 43.1852 14.5376 43.2762 14.6248 43.3507C14.7813 43.4861 14.9813 43.5605 15.1882 43.5604ZM11.3971 39.0617C11.5483 38.9259 11.6471 38.7415 11.6764 38.5404C11.7057 38.3393 11.6637 38.1344 11.5577 37.961C11.4517 37.7877 11.2883 37.657 11.0959 37.5916C10.9035 37.5262 10.6943 37.5302 10.5046 37.6029C10.3149 37.6757 10.1566 37.8126 10.0573 37.9898C9.95797 38.1671 9.92386 38.3735 9.96089 38.5733C9.99792 38.7731 10.1037 38.9536 10.26 39.0835C10.4162 39.2135 10.613 39.2845 10.8162 39.2845C11.0306 39.2838 11.2373 39.2045 11.3971 39.0617ZM12.9345 41.4945C13.0509 41.4948 13.1661 41.4718 13.2734 41.4268C13.3807 41.3818 13.4778 41.3157 13.5591 41.2324C13.68 41.1089 13.7616 40.9523 13.7935 40.7824C13.8254 40.6126 13.8062 40.437 13.7384 40.2781C13.6705 40.1191 13.5571 39.9838 13.4123 39.8893C13.2676 39.7948 13.0981 39.7454 12.9253 39.7472C12.7524 39.749 12.584 39.8021 12.4413 39.8996C12.2986 39.9971 12.1881 40.1348 12.1236 40.2952C12.0592 40.4556 12.0437 40.6315 12.0792 40.8006C12.1147 40.9698 12.1996 41.1246 12.3231 41.2455C12.4862 41.4057 12.7059 41.4952 12.9345 41.4945ZM18.1015 43.8967C18.0094 43.8285 17.9048 43.779 17.7936 43.7512C17.6825 43.7233 17.5669 43.7177 17.4535 43.7345C17.3402 43.7513 17.2313 43.7903 17.133 43.8493C17.0347 43.9082 16.949 43.9859 16.8807 44.078C16.8124 44.17 16.763 44.2746 16.7352 44.3858C16.7073 44.497 16.7017 44.6125 16.7185 44.7259C16.7353 44.8392 16.7743 44.9482 16.8333 45.0465C16.8922 45.1447 16.9699 45.2305 17.062 45.2987H17.0576C17.2435 45.4371 17.4768 45.496 17.7062 45.4625C17.9355 45.4289 18.1421 45.3056 18.2805 45.1196C18.419 44.9337 18.4779 44.7004 18.4443 44.4711C18.4107 44.2417 18.2874 44.0351 18.1015 43.8967ZM48.6925 47.0632C48.5194 47.1543 48.3819 47.3008 48.3019 47.4793C48.222 47.6578 48.2043 47.8579 48.2516 48.0477C48.2989 48.2374 48.4085 48.4058 48.5629 48.5259C48.7173 48.6459 48.9075 48.7107 49.103 48.7099C49.2358 48.7098 49.3669 48.6795 49.4862 48.6212C49.6056 48.563 49.7101 48.4783 49.7918 48.3737C49.8736 48.269 49.9304 48.1471 49.958 48.0172C49.9856 47.8873 49.9832 47.7528 49.9511 47.6239C49.919 47.495 49.8579 47.3752 49.7726 47.2735C49.6872 47.1717 49.5798 47.0907 49.4585 47.0367C49.3372 46.9827 49.2051 46.957 49.0724 46.9616C48.9397 46.9662 48.8097 47.0009 48.6925 47.0632ZM57.1919 43.2852C57.3487 43.1516 57.4535 42.967 57.4879 42.7638C57.5223 42.5606 57.484 42.3518 57.3799 42.174C57.2758 41.9962 57.1124 41.8607 56.9184 41.7913C56.7244 41.7218 56.5121 41.7229 56.3188 41.7943C56.1255 41.8657 55.9635 42.0028 55.8611 42.1816C55.7588 42.3605 55.7227 42.5697 55.7591 42.7725C55.7955 42.9753 55.9021 43.1588 56.0603 43.2909C56.2184 43.423 56.418 43.4952 56.6241 43.4949C56.8327 43.4972 57.0349 43.4226 57.1919 43.2852ZM51.265 45.552C51.1193 45.6453 51.0046 45.7797 50.9353 45.9383C50.8661 46.0968 50.8454 46.2723 50.876 46.4426C50.9066 46.6128 50.987 46.7702 51.1071 46.8947C51.2272 47.0193 51.3815 47.1054 51.5506 47.1421C51.7196 47.1789 51.8958 47.1646 52.0567 47.1012C52.2176 47.0377 52.3561 46.928 52.4546 46.7858C52.5532 46.6436 52.6072 46.4753 52.6101 46.3023C52.6129 46.1294 52.5643 45.9594 52.4705 45.8141C52.3448 45.6201 52.1476 45.4837 51.9217 45.4346C51.6959 45.3855 51.4598 45.4277 51.265 45.552ZM54.7679 45.2376C54.9061 45.1339 55.0104 44.9916 55.0678 44.8286C55.1251 44.6656 55.1328 44.4893 55.0899 44.322C55.0471 44.1546 54.9555 44.0037 54.8269 43.8884C54.6982 43.773 54.5383 43.6984 54.3673 43.674C54.1962 43.6496 54.0218 43.6764 53.866 43.7511C53.7102 43.8258 53.5801 43.945 53.4921 44.0937C53.4041 44.2424 53.3621 44.4138 53.3715 44.5863C53.3809 44.7588 53.4412 44.9247 53.5449 45.0629C53.6839 45.2482 53.8909 45.3707 54.1202 45.4035C54.3495 45.4363 54.5825 45.3766 54.7679 45.2376ZM59.4893 41.1975C59.6383 41.0569 59.7335 40.8687 59.7587 40.6654C59.7839 40.462 59.7373 40.2563 59.6271 40.0836C59.5169 39.9109 59.35 39.782 59.155 39.7191C58.96 39.6563 58.7492 39.6634 58.5589 39.7393C58.3685 39.8151 58.2106 39.9549 58.1123 40.1347C58.014 40.3144 57.9815 40.5228 58.0203 40.724C58.0591 40.9252 58.1668 41.1065 58.325 41.2368C58.4831 41.3671 58.6817 41.4381 58.8865 41.4377C59.1108 41.4378 59.3265 41.3518 59.4893 41.1975ZM60.3978 37.7951C60.2799 37.919 60.2011 38.0749 60.1711 38.2433C60.1412 38.4117 60.1615 38.5851 60.2295 38.7421C60.2975 38.899 60.4102 39.0325 60.5535 39.1258C60.6968 39.2191 60.8644 39.2682 61.0354 39.267C61.1543 39.2674 61.2719 39.2431 61.3809 39.1957C61.4899 39.1484 61.5879 39.079 61.6687 38.9918C61.7504 38.909 61.8147 38.8106 61.8578 38.7026C61.9009 38.5946 61.922 38.479 61.9198 38.3627C61.9177 38.2464 61.8923 38.1317 61.8451 38.0253C61.798 37.9189 61.7301 37.8231 61.6454 37.7433C61.5607 37.6636 61.4609 37.6016 61.3519 37.5609C61.2429 37.5203 61.1269 37.5018 61.0107 37.5066C60.8945 37.5115 60.7804 37.5395 60.6751 37.589C60.5698 37.6385 60.4755 37.7086 60.3978 37.7951ZM34.4583 50.3696C34.3426 50.3603 34.2261 50.3742 34.1158 50.4105C34.0055 50.4467 33.9036 50.5047 33.8159 50.5808C33.7283 50.657 33.6567 50.7499 33.6054 50.854C33.5541 50.9582 33.524 51.0715 33.5171 51.1874C33.5101 51.3033 33.5263 51.4195 33.5648 51.529C33.6032 51.6386 33.6631 51.7394 33.741 51.8255C33.8189 51.9116 33.9132 51.9813 34.0184 52.0306C34.1235 52.0798 34.2375 52.1076 34.3535 52.1122H34.4059C34.6322 52.1115 34.8494 52.0229 35.0116 51.865C35.1737 51.7072 35.2682 51.4925 35.275 51.2663C35.2818 51.04 35.2004 50.82 35.048 50.6527C34.8956 50.4854 34.6842 50.3839 34.4583 50.3696ZM28.6493 49.3301C28.5392 49.2976 28.4238 49.2873 28.3096 49.2995C28.1955 49.3117 28.0849 49.3462 27.9841 49.4012C27.8833 49.4561 27.7943 49.5304 27.7222 49.6197C27.6502 49.7091 27.5964 49.8118 27.564 49.9219C27.5316 50.032 27.5212 50.1474 27.5334 50.2616C27.5456 50.3757 27.5801 50.4863 27.6351 50.5871C27.69 50.6879 27.7643 50.7769 27.8537 50.849C27.943 50.921 28.0457 50.9748 28.1558 51.0072C28.2355 51.0294 28.3177 51.0412 28.4004 51.0422C28.6106 51.0425 28.8139 50.967 28.973 50.8296C29.1321 50.6922 29.2363 50.502 29.2666 50.294C29.2968 50.0859 29.2511 49.874 29.1377 49.6969C29.0243 49.5199 28.8509 49.3896 28.6493 49.3301ZM31.5276 50.0158C31.414 49.9942 31.2972 49.9953 31.184 50.0191C31.0708 50.043 30.9635 50.0891 30.8682 50.1547C30.773 50.2204 30.6917 50.3043 30.6292 50.4015C30.5666 50.4988 30.5239 50.6076 30.5037 50.7215C30.4835 50.8353 30.486 50.9521 30.5113 51.065C30.5365 51.1779 30.5839 51.2846 30.6507 51.3791C30.7175 51.4735 30.8024 51.5537 30.9004 51.6151C30.9985 51.6765 31.1077 51.7178 31.2219 51.7366C31.2724 51.7452 31.3235 51.7496 31.3747 51.7497C31.5935 51.7503 31.8045 51.6687 31.966 51.5212C32.1276 51.3736 32.2278 51.1708 32.247 50.9529C32.2663 50.735 32.203 50.5178 32.0698 50.3443C31.9366 50.1707 31.7431 50.0535 31.5276 50.0158ZM40.3415 50.0201C40.126 50.0579 39.9326 50.1751 39.7993 50.3486C39.6661 50.5222 39.6029 50.7394 39.6221 50.9573C39.6413 51.1752 39.7416 51.378 39.9031 51.5255C40.0646 51.6731 40.2756 51.7546 40.4944 51.7541C40.5456 51.7538 40.5967 51.7494 40.6473 51.741C40.8731 51.698 41.073 51.5677 41.2035 51.3784C41.3339 51.1891 41.3846 50.956 41.3443 50.7296C41.3041 50.5032 41.1763 50.3018 40.9886 50.169C40.8009 50.0362 40.5684 49.9827 40.3415 50.0201ZM37.4065 50.3696C37.18 50.3839 36.968 50.4856 36.8152 50.6534C36.6624 50.8211 36.5808 51.0417 36.5876 51.2684C36.5944 51.4952 36.6891 51.7105 36.8517 51.8688C37.0143 52.027 37.232 52.1159 37.4589 52.1166C37.4764 52.1173 37.494 52.1158 37.5113 52.1122C37.6273 52.1076 37.7412 52.0798 37.8464 52.0306C37.9515 51.9813 38.0458 51.9116 38.1237 51.8255C38.2016 51.7394 38.2615 51.6386 38.3 51.529C38.3384 51.4195 38.3547 51.3033 38.3477 51.1874C38.3407 51.0715 38.3107 50.9582 38.2594 50.854C38.2081 50.7499 38.1365 50.657 38.0488 50.5808C37.9612 50.5047 37.8592 50.4467 37.7489 50.4105C37.6386 50.3742 37.5222 50.3603 37.4065 50.3696ZM46.0064 48.3342C45.8193 48.4116 45.6649 48.5515 45.5696 48.7301C45.4742 48.9086 45.4438 49.1147 45.4835 49.3132C45.5232 49.5117 45.6305 49.6903 45.7872 49.8184C45.9439 49.9465 46.1402 50.0163 46.3427 50.0158C46.4565 50.0153 46.5691 49.9931 46.6746 49.9503C46.8889 49.8617 47.0592 49.6915 47.1481 49.4773C47.237 49.2631 47.2371 49.0224 47.1485 48.8081C47.0599 48.5938 46.8898 48.4235 46.6756 48.3346C46.4614 48.2458 46.2207 48.2456 46.0064 48.3342ZM43.2154 49.3344C43.0143 49.3939 42.8414 49.5239 42.7284 49.7005C42.6154 49.8772 42.5698 50.0886 42.6001 50.2962C42.6303 50.5037 42.7344 50.6933 42.8931 50.8303C43.0519 50.9674 43.2547 51.0426 43.4644 51.0422C43.5487 51.0436 43.6327 51.0318 43.7133 51.0072C43.8232 50.9745 43.9255 50.9205 44.0145 50.8483C44.1034 50.7761 44.1773 50.687 44.2318 50.5862C44.2864 50.4854 44.3206 50.3749 44.3324 50.2609C44.3442 50.1469 44.3335 50.0317 44.3008 49.9219C44.2681 49.812 44.2141 49.7097 44.1418 49.6207C44.0696 49.5318 43.9806 49.4579 43.8798 49.4034C43.779 49.3488 43.6684 49.3147 43.5545 49.3028C43.4405 49.291 43.3253 49.3017 43.2154 49.3344Z" fill="#3CFCA0"/>
<path d="M36 30.7589C34.9634 30.7589 33.95 31.0662 33.0881 31.6421C32.2262 32.2181 31.5544 33.0366 31.1578 33.9943C30.7611 34.952 30.6573 36.0058 30.8595 37.0225C31.0617 38.0392 31.5609 38.9731 32.2939 39.7061C33.0269 40.4391 33.9608 40.9383 34.9775 41.1405C35.9942 41.3427 37.048 41.2389 38.0057 40.8422C38.9634 40.4455 39.7819 39.7738 40.3578 38.9119C40.9338 38.05 41.2411 37.0366 41.2411 36C41.2396 34.6104 40.687 33.2782 39.7044 32.2956C38.7218 31.313 37.3896 30.7604 36 30.7589ZM36 39.4941C35.3089 39.4941 34.6333 39.2892 34.0587 38.9053C33.4841 38.5213 33.0363 37.9756 32.7718 37.3372C32.5074 36.6987 32.4382 35.9962 32.573 35.3184C32.7078 34.6406 33.0406 34.018 33.5293 33.5293C34.0179 33.0407 34.6405 32.7079 35.3183 32.573C35.9961 32.4382 36.6986 32.5074 37.3371 32.7719C37.9756 33.0363 38.5213 33.4842 38.9052 34.0588C39.2892 34.6334 39.4941 35.309 39.4941 36C39.4929 36.9264 39.1244 37.8144 38.4694 38.4695C37.8144 39.1245 36.9263 39.493 36 39.4941Z" fill="#3CFCA0"/>
<path d="M46.2167 33.2632C46.5322 32.8862 46.7244 32.4213 46.7671 31.9316C46.8098 31.4418 46.7011 30.9507 46.4556 30.5247L45.9695 29.6826C45.7237 29.2567 45.3528 28.9168 44.907 28.7091C44.4613 28.5014 43.9624 28.436 43.4782 28.5217C43.5632 28.0375 43.4974 27.5389 43.2898 27.0934C43.0821 26.6478 42.7427 26.2767 42.3173 26.0304L41.4752 25.5443C41.0494 25.2983 40.5582 25.1894 40.0683 25.2325C39.5785 25.2757 39.1138 25.4687 38.7376 25.7854C38.5692 25.3233 38.263 24.9241 37.8603 24.6418C37.4576 24.3596 36.9778 24.2079 36.486 24.2073H35.5138C35.022 24.2079 34.5423 24.3596 34.1396 24.6418C33.7368 24.9241 33.4306 25.3233 33.2623 25.7854C32.886 25.4687 32.4214 25.2757 31.9315 25.2325C31.4417 25.1894 30.9504 25.2983 30.5246 25.5443L29.6826 26.0304C29.2572 26.2767 28.9177 26.6478 28.7101 27.0934C28.5024 27.5389 28.4367 28.0375 28.5216 28.5217C28.0374 28.436 27.5385 28.5014 27.0928 28.7091C26.6471 28.9168 26.2761 29.2567 26.0303 29.6826L25.5442 30.5247C25.2988 30.9507 25.19 31.4418 25.2328 31.9316C25.2755 32.4213 25.4676 32.8862 25.7831 33.2632C25.3216 33.4318 24.923 33.7381 24.6411 34.1406C24.3593 34.5431 24.2079 35.0225 24.2073 35.5139V36.4861C24.2079 36.9775 24.3594 37.4568 24.6412 37.8593C24.923 38.2618 25.3216 38.5681 25.7831 38.7368C25.4676 39.1138 25.2755 39.5786 25.2328 40.0684C25.19 40.5582 25.2988 41.0493 25.5442 41.4753L26.0303 42.3173C26.2761 42.7433 26.6471 43.0832 27.0928 43.2909C27.5385 43.4986 28.0374 43.564 28.5216 43.4783C28.4367 43.9624 28.5024 44.461 28.7101 44.9066C28.9177 45.3522 29.2572 45.7232 29.6826 45.9696L30.5246 46.4557C30.9504 46.7017 31.4417 46.8106 31.9315 46.7674C32.4214 46.7243 32.886 46.5312 33.2623 46.2146C33.4306 46.6767 33.7368 47.0759 34.1396 47.3581C34.5423 47.6404 35.022 47.7921 35.5138 47.7926H36.486C36.9778 47.7921 37.4576 47.6404 37.8603 47.3581C38.263 47.0759 38.5692 46.6767 38.7376 46.2146C39.1138 46.5312 39.5785 46.7243 40.0683 46.7674C40.5582 46.8106 41.0494 46.7017 41.4752 46.4557L42.3173 45.9696C42.7427 45.7233 43.0822 45.3522 43.2899 44.9066C43.4975 44.4611 43.5632 43.9624 43.4782 43.4783C43.9624 43.564 44.4613 43.4986 44.907 43.2909C45.3528 43.0832 45.7237 42.7433 45.9695 42.3173L46.4556 41.4753C46.7011 41.0493 46.8098 40.5582 46.7671 40.0684C46.7244 39.5786 46.5322 39.1138 46.2167 38.7368C46.6783 38.5681 47.0769 38.2619 47.3587 37.8593C47.6406 37.4568 47.792 36.9775 47.7926 36.4861V35.5139C47.792 35.0225 47.6406 34.5431 47.3587 34.1406C47.0769 33.7381 46.6783 33.4318 46.2167 33.2632ZM46.0455 36.4861C46.0455 36.658 45.9772 36.8229 45.8557 36.9444C45.7341 37.066 45.5693 37.1343 45.3974 37.1343H44.1836C44.0907 37.8124 43.9133 38.4761 43.6555 39.1102L44.7055 39.7164C44.8544 39.8024 44.963 39.9439 45.0074 40.11C45.0519 40.276 45.0286 40.4529 44.9427 40.6017L44.4566 41.4438C44.414 41.5176 44.3574 41.5822 44.2899 41.634C44.2224 41.6859 44.1453 41.7239 44.0631 41.7459C43.9808 41.7679 43.8951 41.7735 43.8107 41.7624C43.7263 41.7513 43.6449 41.7236 43.5712 41.681L42.5195 41.0739C42.099 41.6135 41.6134 42.099 41.0738 42.5196L41.6809 43.5713C41.7669 43.7202 41.7901 43.897 41.7457 44.0631C41.7012 44.2291 41.5926 44.3707 41.4438 44.4566L40.6017 44.9427C40.528 44.9853 40.4466 45.013 40.3622 45.0242C40.2778 45.0353 40.1921 45.0297 40.1099 45.0077C40.0276 44.9856 39.9506 44.9476 39.883 44.8958C39.8155 44.844 39.7589 44.7793 39.7164 44.7056L39.1101 43.6556C38.4761 43.9135 37.8123 44.091 37.1342 44.1841V45.3974C37.1342 45.5693 37.0659 45.7342 36.9444 45.8557C36.8228 45.9773 36.6579 46.0456 36.486 46.0456H35.5138C35.3419 46.0456 35.177 45.9773 35.0555 45.8557C34.9339 45.7342 34.8656 45.5693 34.8656 45.3974V44.1836C34.1876 44.0907 33.5238 43.9133 32.8897 43.6556L32.2835 44.7056C32.241 44.7793 32.1843 44.844 32.1168 44.8958C32.0493 44.9476 31.9722 44.9856 31.89 45.0077C31.8078 45.0297 31.722 45.0353 31.6376 45.0242C31.5532 45.013 31.4719 44.9853 31.3982 44.9427L30.5561 44.4566C30.4072 44.3707 30.2987 44.2291 30.2542 44.0631C30.2097 43.897 30.233 43.7202 30.3189 43.5713L30.926 42.5196C30.3864 42.099 29.9009 41.6135 29.4803 41.0739L28.4286 41.681C28.3549 41.7236 28.2735 41.7513 28.1892 41.7624C28.1048 41.7735 28.019 41.7679 27.9368 41.7459C27.8546 41.7239 27.7775 41.6859 27.71 41.634C27.6424 41.5822 27.5858 41.5176 27.5433 41.4438L27.0572 40.6017C26.9712 40.4529 26.9479 40.276 26.9924 40.11C27.0369 39.9439 27.1455 39.8024 27.2943 39.7164L28.3443 39.1102C28.0864 38.4762 27.9089 37.8124 27.8158 37.1343H26.6025C26.4306 37.1343 26.2657 37.066 26.1442 36.9444C26.0226 36.8229 25.9543 36.658 25.9543 36.4861V35.5139C25.9543 35.342 26.0226 35.1771 26.1442 35.0555C26.2657 34.934 26.4306 34.8657 26.6025 34.8657H27.8163C27.9091 34.1875 28.0865 33.5235 28.3443 32.8893L27.2943 32.2836C27.1455 32.1976 27.0369 32.056 26.9924 31.89C26.9479 31.724 26.9712 31.5471 27.0572 31.3982L27.5433 30.5561C27.5858 30.4824 27.6424 30.4178 27.71 30.3659C27.7775 30.3141 27.8546 30.2761 27.9368 30.2541C28.019 30.232 28.1048 30.2264 28.1892 30.2376C28.2735 30.2487 28.3549 30.2764 28.4286 30.319L29.4803 30.9261C29.9009 30.3865 30.3864 29.9009 30.926 29.4804L30.3189 28.4287C30.233 28.2798 30.2097 28.1029 30.2542 27.9369C30.2987 27.7709 30.4072 27.6293 30.5561 27.5433L31.3982 27.0572C31.4719 27.0146 31.5532 26.987 31.6376 26.9758C31.722 26.9647 31.8078 26.9703 31.89 26.9923C31.9722 27.0143 32.0493 27.0523 32.1168 27.1042C32.1843 27.156 32.241 27.2207 32.2835 27.2944L32.8893 28.3444C33.5234 28.0864 34.1874 27.9089 34.8656 27.8159V26.6026C34.8656 26.4307 34.9339 26.2658 35.0555 26.1442C35.177 26.0227 35.3419 25.9544 35.5138 25.9544H36.486C36.6579 25.9544 36.8228 26.0227 36.9444 26.1442C37.0659 26.2658 37.1342 26.4307 37.1342 26.6026V27.8163C37.8123 27.9092 38.4761 28.0866 39.1101 28.3444L39.7164 27.2944C39.7589 27.2207 39.8155 27.156 39.883 27.1042C39.9506 27.0523 40.0276 27.0143 40.1099 26.9923C40.1921 26.9703 40.2778 26.9647 40.3622 26.9758C40.4466 26.987 40.528 27.0146 40.6017 27.0572L41.4438 27.5433C41.5926 27.6293 41.7012 27.7709 41.7457 27.9369C41.7901 28.1029 41.7669 28.2798 41.6809 28.4287L41.0738 29.4804C41.6134 29.9009 42.099 30.3865 42.5195 30.9261L43.5712 30.319C43.6449 30.2764 43.7263 30.2487 43.8107 30.2376C43.8951 30.2264 43.9808 30.232 44.0631 30.2541C44.1453 30.2761 44.2224 30.3141 44.2899 30.3659C44.3574 30.4178 44.414 30.4824 44.4566 30.5561L44.9427 31.3982C45.0286 31.5471 45.0519 31.724 45.0074 31.89C44.963 32.056 44.8544 32.1976 44.7055 32.2836L43.6555 32.8898C43.9134 33.5238 44.091 34.1876 44.184 34.8657H45.3974C45.5693 34.8657 45.7341 34.934 45.8557 35.0555C45.9772 35.1771 46.0455 35.342 46.0455 35.5139V36.4861Z" fill="#3CFCA0"/>
</g>
<defs>
<clipPath id="clip0_891_5856">
<rect width="55.9059" height="55.9059" fill="white" transform="translate(8.04712 8.04706)"/>
</clipPath>
</defs>
</svg>
