<svg width="16" height="20" viewBox="0 0 16 20" fill="none" xmlns="http://www.w3.org/2000/svg">
<path d="M8 19.5444C8.52995 19.5429 9.03773 19.34 9.41247 18.9799C9.7872 18.6199 9.99842 18.1321 10 17.623H6C6.00158 18.1321 6.2128 18.6199 6.58753 18.9799C6.96227 19.34 7.47005 19.5429 8 19.5444ZM14 13.7801V8.97658C14 6.0272 12.37 3.55818 9.5 2.90489V2.25161C9.5 1.86942 9.34196 1.50288 9.06066 1.23263C8.77936 0.962373 8.39782 0.810547 8 0.810547C7.60218 0.810547 7.22064 0.962373 6.93934 1.23263C6.65804 1.50288 6.5 1.86942 6.5 2.25161V2.90489C3.64 3.55818 2 6.0176 2 8.97658V13.7801L0 15.7016V16.6623H16V15.7016L14 13.7801ZM12 14.7408H4V8.97658C4 6.59402 5.51 4.65339 8 4.65339C10.49 4.65339 12 6.59402 12 8.97658V14.7408Z" fill="white"/>
</svg>
