<svg width="187" height="52" viewBox="0 0 187 52" fill="none" xmlns="http://www.w3.org/2000/svg">
<path fill-rule="evenodd" clip-rule="evenodd" d="M21.9355 35.0229C21.3972 35.0816 20.8483 35.1118 20.2903 35.1118C12.2812 35.1118 6.1403 28.883 6.1403 21.6261C6.1403 14.3691 12.2812 8.1403 20.2903 8.1403C28.2993 8.1403 34.4402 14.369 34.4403 21.6259H40.5806C40.5805 10.7868 31.4963 2 20.2903 2C9.08429 2 0 10.7869 0 21.6261C0 32.4652 9.08429 41.2521 20.2903 41.2521C20.8442 41.2521 21.3929 41.2307 21.9355 41.1885V35.0229Z" fill="url(#paint0_angular_423_3802)"/>
<path opacity="0.87" d="M34.3946 51.1947C32.2352 51.1947 30.5551 50.7786 29.3542 49.9464C28.164 49.1143 27.5688 47.9503 27.5688 46.4546C27.5688 45.2959 27.9322 44.2952 28.659 43.4525C29.3858 42.6203 30.3707 42.12 31.6137 41.9515C31.1186 41.7197 30.7131 41.4037 30.3971 41.0034C30.0916 40.6032 29.9389 40.1397 29.9389 39.613C29.9389 39.0231 30.1232 38.4754 30.4919 37.9698C30.8605 37.4536 31.4136 36.9796 32.1509 36.5478C31.1608 36.1896 30.3813 35.5839 29.8125 34.7307C29.2436 33.867 28.9592 32.8294 28.9592 31.6181C28.9592 30.4594 29.2068 29.4534 29.7019 28.6002C30.1969 27.747 30.8974 27.0886 31.8033 26.6251C32.7197 26.1511 33.7994 25.9141 35.0424 25.9141C35.4216 25.9141 35.7639 25.9247 36.0694 25.9457C36.3854 25.9668 36.6751 26.0037 36.9384 26.0563C37.2017 26.0985 37.4388 26.1564 37.6494 26.2301H43.1953V27.3678L39.6561 27.6048C40.1195 28.163 40.4671 28.7687 40.6989 29.4218C40.9306 30.0644 41.0465 30.7438 41.0465 31.46C41.0465 33.1665 40.5093 34.52 39.4349 35.5207C38.3604 36.5214 36.8647 37.0218 34.9476 37.0218C34.4209 37.0218 33.9047 36.9744 33.3991 36.8796C32.7566 37.2588 32.2668 37.6432 31.9297 38.033C31.5926 38.4122 31.4241 38.8862 31.4241 39.455C31.4241 39.8132 31.5294 40.1081 31.7401 40.3398C31.9508 40.561 32.2562 40.7348 32.6565 40.8612C33.0568 40.9771 33.5466 41.035 34.1259 41.035H37.1438C39.0083 41.035 40.4355 41.4143 41.4257 42.1727C42.4159 42.9311 42.9109 44.0476 42.9109 45.5223C42.9109 47.3236 42.1683 48.7193 40.6831 49.7094C39.2084 50.6996 37.1122 51.1947 34.3946 51.1947ZM34.5052 49.8516C36.0115 49.8516 37.2649 49.6884 38.2656 49.3618C39.2769 49.0353 40.0353 48.5507 40.5409 47.9082C41.0465 47.2762 41.2993 46.4914 41.2993 45.5539C41.2993 44.785 41.115 44.1898 40.7463 43.7685C40.3776 43.3472 39.8562 43.0575 39.1821 42.8995C38.5079 42.731 37.7126 42.6467 36.7962 42.6467H33.9205C33.0041 42.6467 32.1878 42.7731 31.4715 43.0259C30.7552 43.2682 30.1969 43.6579 29.7967 44.1951C29.4069 44.7323 29.212 45.4486 29.212 46.344C29.212 47.4921 29.6597 48.3611 30.5551 48.951C31.461 49.5514 32.7777 49.8516 34.5052 49.8516ZM35.0108 35.7419C36.4328 35.7419 37.523 35.3838 38.2814 34.6675C39.0399 33.9512 39.4191 32.9137 39.4191 31.5549C39.4191 30.1012 39.0293 29.011 38.2498 28.2842C37.4704 27.5574 36.3801 27.194 34.9792 27.194C33.6203 27.194 32.5512 27.5837 31.7717 28.3632C31.0028 29.1321 30.6183 30.2171 30.6183 31.6181C30.6183 32.9242 30.987 33.9407 31.7243 34.6675C32.4616 35.3838 33.5571 35.7419 35.0108 35.7419ZM53.4972 25.9457C53.9501 25.9457 54.3767 25.9721 54.777 26.0247C55.1773 26.0774 55.5512 26.1511 55.8988 26.2459L55.646 27.7154C55.2984 27.6206 54.9455 27.5521 54.5874 27.51C54.2292 27.4573 53.8448 27.431 53.434 27.431C52.6229 27.431 51.8961 27.5837 51.2535 27.8892C50.6215 28.1946 50.0843 28.6318 49.6419 29.2006C49.1995 29.7694 48.8624 30.4541 48.6307 31.2546C48.3989 32.0552 48.283 32.9505 48.283 33.9407V43.4209H46.6714V26.2459H48.046L48.204 29.485H48.2988C48.5622 28.8214 48.9309 28.2262 49.4049 27.6996C49.8894 27.1624 50.474 26.7357 51.1587 26.4197C51.8434 26.1037 52.6229 25.9457 53.4972 25.9457ZM65.774 25.9141C67.2382 25.9141 68.4548 26.2565 69.4239 26.9412C70.4035 27.6258 71.1303 28.5633 71.6043 29.7536C72.0889 30.9439 72.3311 32.308 72.3311 33.8459V34.9993H59.9279C59.9279 37.3588 60.4704 39.1706 61.5553 40.4346C62.6508 41.6987 64.215 42.3307 66.248 42.3307C67.3119 42.3307 68.2336 42.2464 69.0131 42.0779C69.8031 41.8988 70.6774 41.5986 71.6359 41.1773V42.6467C70.7932 43.0259 69.9506 43.2998 69.1079 43.4683C68.2652 43.6474 67.2961 43.7369 66.2006 43.7369C64.4626 43.7369 63.0037 43.3788 61.8239 42.6625C60.6547 41.9357 59.7699 40.9139 59.1695 39.5972C58.5796 38.2805 58.2847 36.7426 58.2847 34.9835C58.2847 33.2666 58.5691 31.7234 59.1379 30.354C59.7172 28.9847 60.5599 27.905 61.6659 27.115C62.7825 26.3144 64.1518 25.9141 65.774 25.9141ZM65.7582 27.2888C64.115 27.2888 62.7825 27.8365 61.7607 28.932C60.7495 30.017 60.1544 31.5865 59.9753 33.6405H70.6721C70.6721 32.387 70.493 31.281 70.1349 30.3224C69.7768 29.3639 69.2343 28.6213 68.5075 28.0946C67.7912 27.5574 66.8748 27.2888 65.7582 27.2888ZM83.5652 25.9141C85.0293 25.9141 86.246 26.2565 87.2151 26.9412C88.1947 27.6258 88.9215 28.5633 89.3955 29.7536C89.88 30.9439 90.1223 32.308 90.1223 33.8459V34.9993H77.7191C77.7191 37.3588 78.2615 39.1706 79.3465 40.4346C80.442 41.6987 82.0062 42.3307 84.0392 42.3307C85.1031 42.3307 86.0248 42.2464 86.8043 42.0779C87.5943 41.8988 88.4686 41.5986 89.4271 41.1773V42.6467C88.5844 43.0259 87.7417 43.2998 86.8991 43.4683C86.0564 43.6474 85.0873 43.7369 83.9918 43.7369C82.2538 43.7369 80.7949 43.3788 79.6151 42.6625C78.4459 41.9357 77.5611 40.9139 76.9606 39.5972C76.3708 38.2805 76.0758 36.7426 76.0758 34.9835C76.0758 33.2666 76.3602 31.7234 76.929 30.354C77.5084 28.9847 78.3511 27.905 79.4571 27.115C80.5737 26.3144 81.943 25.9141 83.5652 25.9141ZM83.5494 27.2888C81.9061 27.2888 80.5737 27.8365 79.5519 28.932C78.5407 30.017 77.9455 31.5865 77.7665 33.6405H88.4633C88.4633 32.387 88.2842 31.281 87.9261 30.3224C87.5679 29.3639 87.0255 28.6213 86.2986 28.0946C85.5824 27.5574 84.6659 27.2888 83.5494 27.2888ZM102.415 25.9141C104.343 25.9141 105.823 26.4197 106.855 27.431C107.887 28.4422 108.403 30.0275 108.403 32.1869V43.4209H106.823V32.2817C106.823 30.5752 106.434 29.3217 105.654 28.5212C104.875 27.7206 103.742 27.3204 102.257 27.3204C100.371 27.3204 98.9284 27.8734 97.9277 28.9794C96.9375 30.0749 96.4425 31.7339 96.4425 33.9565V43.4209H94.8466V26.2459H96.1423L96.3793 29.3744H96.4741C96.7795 28.7319 97.1956 28.1525 97.7223 27.6364C98.2595 27.1097 98.9178 26.6936 99.6973 26.3881C100.477 26.0721 101.383 25.9141 102.415 25.9141ZM115.545 18.8356V25.8193C115.545 26.4197 115.535 27.0781 115.513 27.7944C115.492 28.5107 115.471 29.1058 115.45 29.5798H115.545C115.956 28.5159 116.672 27.6364 117.694 26.9412C118.716 26.2459 119.99 25.8983 121.518 25.8983C123.751 25.8983 125.473 26.6515 126.684 28.1578C127.906 29.6641 128.517 31.8709 128.517 34.7781C128.517 36.5583 128.243 38.1225 127.696 39.4708C127.148 40.8086 126.331 41.8567 125.246 42.6151C124.172 43.363 122.824 43.7369 121.202 43.7369C119.737 43.7369 118.542 43.4314 117.615 42.8205C116.688 42.199 116.014 41.4248 115.592 40.4978H115.466L115.166 43.4209H113.949V18.8356H115.545ZM121.344 27.2888C119.985 27.2888 118.879 27.5837 118.026 28.1736C117.172 28.7529 116.546 29.6009 116.145 30.7174C115.745 31.834 115.545 33.1981 115.545 34.8097V35.0625C115.545 37.4326 115.977 39.2391 116.841 40.482C117.704 41.725 119.105 42.3465 121.044 42.3465C122.961 42.3465 124.409 41.6934 125.389 40.3872C126.379 39.0705 126.874 37.2008 126.874 34.7781C126.874 32.3027 126.416 30.4383 125.499 29.1848C124.583 27.9208 123.198 27.2888 121.344 27.2888ZM139.751 25.9141C141.215 25.9141 142.432 26.2565 143.401 26.9412C144.381 27.6258 145.107 28.5633 145.581 29.7536C146.066 30.9439 146.308 32.308 146.308 33.8459V34.9993H133.905C133.905 37.3588 134.448 39.1706 135.532 40.4346C136.628 41.6987 138.192 42.3307 140.225 42.3307C141.289 42.3307 142.211 42.2464 142.99 42.0779C143.78 41.8988 144.655 41.5986 145.613 41.1773V42.6467C144.77 43.0259 143.928 43.2998 143.085 43.4683C142.242 43.6474 141.273 43.7369 140.178 43.7369C138.44 43.7369 136.981 43.3788 135.801 42.6625C134.632 41.9357 133.747 40.9139 133.147 39.5972C132.557 38.2805 132.262 36.7426 132.262 34.9835C132.262 33.2666 132.546 31.7234 133.115 30.354C133.694 28.9847 134.537 27.905 135.643 27.115C136.76 26.3144 138.129 25.9141 139.751 25.9141ZM139.735 27.2888C138.092 27.2888 136.76 27.8365 135.738 28.932C134.727 30.017 134.132 31.5865 133.952 33.6405H144.649C144.649 32.387 144.47 31.281 144.112 30.3224C143.754 29.3639 143.211 28.6213 142.485 28.0946C141.768 27.5574 140.852 27.2888 139.735 27.2888ZM152.66 43.4209H151.048V18.8356H152.66V43.4209ZM163.009 42.3623C163.504 42.3623 163.963 42.3254 164.384 42.2517C164.816 42.1779 165.195 42.0831 165.521 41.9673V43.2945C165.184 43.4104 164.789 43.5104 164.336 43.5947C163.884 43.6895 163.383 43.7369 162.835 43.7369C161.866 43.7369 161.061 43.5578 160.418 43.1997C159.775 42.831 159.291 42.278 158.964 41.5407C158.638 40.7928 158.475 39.8448 158.475 38.6966V27.5732H155.915V26.6251L158.459 26.1353L159.012 22.0905H160.07V26.2459H165.427V27.5732H160.07V38.6018C160.07 39.8342 160.297 40.7717 160.75 41.4143C161.213 42.0463 161.966 42.3623 163.009 42.3623Z" fill="white"/>
<path opacity="0.87" d="M170.084 25.1588V21.1638H171.27C171.759 21.1638 172.119 21.266 172.35 21.4705C172.581 21.6719 172.697 21.9682 172.697 22.3592C172.697 22.6466 172.624 22.8732 172.479 23.0391C172.334 23.205 172.168 23.325 171.981 23.3991L173.034 25.1588H172.257L171.363 23.6035H170.777V25.1588H170.084ZM170.777 23.0391H171.248C171.491 23.0391 171.676 22.9784 171.803 22.8569C171.934 22.7355 171.999 22.5755 171.999 22.377C171.999 22.1548 171.94 21.9948 171.821 21.8971C171.703 21.7993 171.509 21.7504 171.239 21.7504H170.777V23.0391ZM171.346 26.5098C170.863 26.5098 170.417 26.4268 170.008 26.2609C169.602 26.095 169.248 25.8625 168.946 25.5632C168.647 25.264 168.414 24.9115 168.248 24.5056C168.085 24.0968 168.004 23.6524 168.004 23.1724C168.004 22.6984 168.087 22.2585 168.253 21.8526C168.422 21.4468 168.657 21.0927 168.959 20.7905C169.262 20.4884 169.616 20.2528 170.021 20.084C170.427 19.9151 170.869 19.8307 171.346 19.8307C171.811 19.8307 172.245 19.9136 172.648 20.0795C173.054 20.2454 173.409 20.4795 173.714 20.7817C174.019 21.0809 174.258 21.4334 174.43 21.8393C174.602 22.2452 174.687 22.6896 174.687 23.1724C174.687 23.6524 174.605 24.0968 174.439 24.5056C174.276 24.9115 174.043 25.264 173.741 25.5632C173.442 25.8625 173.088 26.095 172.679 26.2609C172.273 26.4268 171.829 26.5098 171.346 26.5098ZM171.346 25.9898C171.731 25.9898 172.091 25.9217 172.426 25.7854C172.76 25.6462 173.055 25.4507 173.31 25.1988C173.565 24.9441 173.763 24.6448 173.905 24.3012C174.051 23.9575 174.123 23.5813 174.123 23.1724C174.123 22.7844 174.054 22.42 173.914 22.0793C173.778 21.7386 173.584 21.4379 173.332 21.1772C173.083 20.9165 172.79 20.7135 172.452 20.5684C172.115 20.4202 171.746 20.3462 171.346 20.3462C170.946 20.3462 170.575 20.4158 170.235 20.555C169.897 20.6943 169.602 20.8913 169.35 21.1461C169.099 21.3979 168.903 21.6956 168.764 22.0393C168.628 22.3829 168.559 22.7607 168.559 23.1724C168.559 23.5724 168.628 23.9442 168.764 24.2879C168.9 24.6285 169.093 24.9263 169.342 25.1811C169.59 25.4358 169.885 25.6343 170.226 25.7765C170.567 25.9187 170.94 25.9898 171.346 25.9898Z" fill="white"/>
<defs>
<radialGradient id="paint0_angular_423_3802" cx="0" cy="0" r="1" gradientUnits="userSpaceOnUse" gradientTransform="translate(15.3548 19.9906) rotate(69.1791) scale(23.9135 24.6864)">
<stop offset="0.00241478" stop-color="#06FED2"/>
<stop offset="1" stop-color="#92F856"/>
</radialGradient>
</defs>
</svg>
