<svg width="40" height="60" viewBox="0 0 40 60" fill="none" xmlns="http://www.w3.org/2000/svg">
<path fill-rule="evenodd" clip-rule="evenodd" d="M18.1261 33.5124C17.6803 33.5757 17.2264 33.6083 16.7667 33.6083C11.3627 33.6083 6.75687 29.1036 6.75687 23.2666C6.75687 17.4295 11.3627 12.9248 16.7667 12.9248C22.1707 12.9248 26.7765 17.4295 26.7765 23.2665H33.5334C33.5333 13.8232 26.0267 6.16797 16.7667 6.16797C7.5067 6.16797 0 13.8233 0 23.2666C0 32.7099 7.5067 40.3652 16.7667 40.3652C17.2243 40.3652 17.6777 40.3465 18.1261 40.3098V33.5124Z" fill="url(#paint0_angular_4832_126195)"/>
<path d="M39.176 29.3209V31.3365L35.2793 31.7972C35.6376 32.2451 35.9576 32.8337 36.2391 33.5632C36.5206 34.2798 36.6614 35.0924 36.6614 36.001C36.6614 38.0614 35.9576 39.7058 34.5499 40.9343C33.1422 42.1628 31.2098 42.7771 28.7528 42.7771C28.1257 42.7771 27.5371 42.7259 26.9868 42.6235C25.6303 43.3402 24.9521 44.2424 24.9521 45.3301C24.9521 45.906 25.1888 46.3347 25.6623 46.6162C26.1358 46.885 26.9484 47.0193 28.1002 47.0193H31.8241C34.102 47.0193 35.8488 47.4992 37.0645 48.459C38.293 49.4188 38.9073 50.8137 38.9073 52.6437C38.9073 54.9727 37.9731 56.7451 36.1047 57.9609C34.2364 59.1894 31.5106 59.8036 27.9274 59.8036C25.176 59.8036 23.0517 59.2918 21.5544 58.268C20.07 57.2442 19.3277 55.7981 19.3277 53.9298C19.3277 52.6501 19.7372 51.5431 20.5563 50.6089C21.3753 49.6747 22.527 49.0413 24.0115 48.7085C23.474 48.4654 23.0197 48.0879 22.6486 47.576C22.2903 47.0641 22.1111 46.4691 22.1111 45.7908C22.1111 45.023 22.3159 44.3511 22.7254 43.7753C23.1349 43.1994 23.7811 42.6427 24.6641 42.1052C23.5764 41.6573 22.687 40.8959 21.9959 39.821C21.3177 38.746 20.9786 37.5175 20.9786 36.1354C20.9786 33.8319 21.6696 32.0595 23.0517 30.8182C24.4338 29.5641 26.3917 28.937 28.9256 28.937C30.0261 28.937 31.0179 29.065 31.9009 29.3209H39.176ZM22.399 53.8914C22.399 55.0303 22.8789 55.8941 23.8387 56.4828C24.7985 57.0715 26.1742 57.3658 27.9658 57.3658C30.6404 57.3658 32.6175 56.9627 33.8972 56.1565C35.1897 55.363 35.836 54.2817 35.836 52.9124C35.836 51.7735 35.4841 50.98 34.7802 50.5321C34.0764 50.097 32.7519 49.8795 30.8067 49.8795H26.9868C25.5407 49.8795 24.4146 50.225 23.6084 50.916C22.8021 51.6071 22.399 52.5989 22.399 53.8914ZM24.1266 36.0586C24.1266 37.5303 24.5426 38.6436 25.3744 39.3987C26.2062 40.1537 27.3643 40.5312 28.8488 40.5312C31.9585 40.5312 33.5133 39.0211 33.5133 36.001C33.5133 32.8401 31.9393 31.2597 28.7912 31.2597C27.2939 31.2597 26.1422 31.6628 25.336 32.469C24.5298 33.2752 24.1266 34.4718 24.1266 36.0586Z" fill="#023535" fill-opacity="0.9"/>
<defs>
<radialGradient id="paint0_angular_4832_126195" cx="0" cy="0" r="1" gradientUnits="userSpaceOnUse" gradientTransform="translate(12.6883 21.8417) rotate(70.1661) scale(20.7014 20.5299)">
<stop offset="0.00241478" stop-color="#06FED2"/>
<stop offset="1" stop-color="#92F856"/>
</radialGradient>
</defs>
</svg>
