<svg width="40" height="60" viewBox="0 0 40 60" fill="none" xmlns="http://www.w3.org/2000/svg">
<path fill-rule="evenodd" clip-rule="evenodd" d="M18.1267 33.5104C17.6807 33.5737 17.2266 33.6063 16.7667 33.6063C11.3627 33.6063 6.75687 29.1017 6.75687 23.2646C6.75687 17.4276 11.3627 12.9229 16.7667 12.9229C22.1707 12.9229 26.7765 17.4275 26.7765 23.2645H33.5334C33.5333 13.8213 26.0267 6.16602 16.7667 6.16602C7.5067 6.16602 0 13.8213 0 23.2646C0 32.7079 7.5067 40.3632 16.7667 40.3632C17.2245 40.3632 17.6781 40.3445 18.1267 40.3078V33.5104Z" fill="url(#paint0_angular_2272_106102)"/>
<path d="M27.8112 59.8041C25.0471 59.8041 22.9163 59.2858 21.4191 58.2493C19.9218 57.2255 19.1732 55.7858 19.1732 53.9303C19.1732 52.6122 19.5891 51.486 20.4209 50.5518C21.2655 49.6176 22.4301 48.997 23.9145 48.6898C23.3642 48.4339 22.8908 48.05 22.494 47.5381C22.1101 47.0262 21.9182 46.4375 21.9182 45.7721C21.9182 45.0043 22.1293 44.3324 22.5516 43.7566C22.9867 43.1679 23.6458 42.6048 24.5288 42.0673C23.4282 41.6194 22.5324 40.8644 21.8414 39.8022C21.1631 38.7273 20.824 37.4796 20.824 36.0591C20.824 34.549 21.1375 33.2629 21.7646 32.2008C22.3917 31.1258 23.3003 30.3068 24.4904 29.7437C25.6805 29.1806 27.1202 28.8991 28.8094 28.8991C29.1805 28.8991 29.5516 28.9183 29.9228 28.9567C30.3067 28.9823 30.6714 29.0271 31.0169 29.0911C31.3624 29.1423 31.6632 29.2062 31.9191 29.283H39.1367V31.337L35.2592 31.8169C35.6431 32.3159 35.963 32.9174 36.2189 33.6212C36.4749 34.3251 36.6029 35.1057 36.6029 35.9631C36.6029 38.0618 35.8926 39.7319 34.4721 40.9732C33.0517 42.2017 31.1001 42.816 28.6175 42.816C28.0288 42.816 27.4273 42.7648 26.8131 42.6624C26.186 43.0079 25.7061 43.3918 25.3734 43.8141C25.0535 44.2364 24.8935 44.7227 24.8935 45.273C24.8935 45.6825 25.0151 46.0088 25.2582 46.252C25.5142 46.4951 25.8789 46.6743 26.3524 46.7895C26.8259 46.8918 27.3953 46.943 28.0608 46.943H31.7655C34.0562 46.943 35.8094 47.4229 37.0252 48.3827C38.2537 49.3425 38.8679 50.7438 38.8679 52.5866C38.8679 54.9156 37.921 56.7008 36.027 57.9422C34.133 59.1835 31.3944 59.8041 27.8112 59.8041ZM27.9072 57.3087C29.6476 57.3087 31.0873 57.1295 32.2262 56.7712C33.378 56.4257 34.2354 55.9202 34.7985 55.2548C35.3743 54.6021 35.6623 53.8215 35.6623 52.9129C35.6623 52.0683 35.4703 51.4284 35.0864 50.9933C34.7025 50.571 34.1394 50.2895 33.3972 50.1487C32.6549 49.9951 31.7463 49.9184 30.6714 49.9184H27.0242C26.0772 49.9184 25.2518 50.0655 24.548 50.3599C23.8441 50.6542 23.3003 51.0893 22.9163 51.6652C22.5452 52.241 22.3597 52.9577 22.3597 53.8151C22.3597 54.954 22.8396 55.8178 23.7993 56.4065C24.7591 57.008 26.1284 57.3087 27.9072 57.3087ZM28.7326 40.4933C30.2555 40.4933 31.4008 40.1094 32.1687 39.3416C32.9365 38.5737 33.3204 37.454 33.3204 35.9823C33.3204 34.4083 32.9301 33.2309 32.1495 32.4503C31.3688 31.6569 30.2171 31.2602 28.6942 31.2602C27.2354 31.2602 26.1092 31.6697 25.3158 32.4887C24.5352 33.2949 24.1449 34.4787 24.1449 36.0399C24.1449 37.4732 24.5416 38.5737 25.335 39.3416C26.1284 40.1094 27.261 40.4933 28.7326 40.4933Z" fill="#EAFAEF"/>
<defs>
<radialGradient id="paint0_angular_2272_106102" cx="0" cy="0" r="1" gradientUnits="userSpaceOnUse" gradientTransform="translate(12.6883 21.8397) rotate(70.1661) scale(20.7014 20.5299)">
<stop offset="0.00241478" stop-color="#06FED2"/>
<stop offset="1" stop-color="#92F856"/>
</radialGradient>
</defs>
</svg>
